<mxfile host="app.diagrams.net" modified="2023-12-29T17:45:26.967Z" agent="Mozilla/5.0 (X11; Linux x86_64) AppleWebKit/537.36 (KHTML, like Gecko) Chrome/120.0.0.0 Safari/537.36" etag="XI5cOMvZrz22gEBpfQ0z" version="22.1.16" type="device">
  <diagram name="Page-1" id="cyB94u8rCYhhM9mJcpZE">
    <mxGraphModel dx="2449" dy="1113" grid="1" gridSize="10" guides="1" tooltips="1" connect="1" arrows="1" fold="1" page="0" pageScale="1" pageWidth="827" pageHeight="1169" math="0" shadow="0">
      <root>
        <mxCell id="0" />
        <mxCell id="1" parent="0" />
        <mxCell id="--E-WBSj7tG_2jARWcKu-1" value="" style="shape=image;verticalLabelPosition=bottom;labelBackgroundColor=default;verticalAlign=top;aspect=fixed;imageAspect=0;image=data:image/png,iVBORw0KGgoAAAANSUhEUgAAA+gAAAPoCAYAAABNo9TkAAAAAXNSR0IArs4c6QAAIABJREFUeAHs3feXHXed5//3u6pu6HC7+95uWVmWkCzZkhMO4ABGBmxjYckKtGEYxkMYsrs9OzuY2f1le/6CPYfDwNeBYYfZ7+450sEzX9jFgy3TjRkwwUm2YQYz4CRsWalbHdQ3Vb2/57ZscFDocEOFp87xQepb9fl83o/3Rd0vVd1PifALAQQQQAABBBBAAAEEEEAAAQQQQAABBBBAAAEEEEAAAQQQQAABBBBAAAEEEEAAAQQQQAABBBBAAAEEEEAAAQQQQAABBBBAAAEEEEAAAQQQQAABBBBAAAEEEEAAAQQQQAABBBBAAAEEEEAAAQQQQAABBBBAAAEEEEAAAQQQQAABBBBAAAEEEEAAAQQQQAABBBBAAAEEEEAAAQQQQAABBBBAAAEEEEAAAQQQQAABBBBAAAEEEEAAAQQQQAABBBBAAAEEEEAAAQQQQAABBBBAAAEEEEAAAQQQQAABBBBAAAEEEEAAAQQQQAABBBBAAAEEEEAAAQQQQAABBBBAAAEEEEAAAQQQQAABBBBAAAEEEEAAAQQQQAABBBBAAAEEEEAAAQQQQAABBBBAAAEEEEAAAQQQQAABBBBAAAEEEEAAgdYIqIlpa6ZmVgQQQAABBBBAIHoC/OAUvZ6xYgQQQCASAl/N7e3VlN8ubnr00KEfHh+SoSASC2eRCCCAAAIIIIBAiwTcFs3LtAgggAACMRfYkrm1PavODa4F1+c6zp6+tvem0SvHNwUjMmIxL53yEEAAAQQQQACBeQk48zqLkxBAAAEEEJi1gK7SQP6ia6p3cEnPFRfcKY+kuPV91ngciAACCCCAAAIJEiCgJ6jZlIoAAgi0UsDE3uaq9wW3cOz2uwvDG4dk2COot7IjzI0AAggggAACYRMgoIetI6wHAQQQiLmAmZ3jWDCwtFAd+Pu+4fUE9Zg3nPIQQAABBBBAYNYCBPRZU3EgAggggEC9BExEHdNzzQ8Gl+X9z3yta2QtQb1euoyDAAIIIIAAAlEVIKBHtXOsGwEEEIiBgIl4KnJR2gkGlxaCj3+1+/7Vu2W3y63vMWguJSCAAAIIIIDAnAUI6HMm4wQEEEAAgboLqGUcs8vb1BsY6+n96NcKD62oBXXhOep1p2ZABBBAAAEEEAivAAE9vL1hZQgggEDiBEytQ9XelQ4qtx8rFD70jb4Hlp4I6qKJw6BgBBBAAAEEEEicAAE9cS2nYAQQQCACAio5MXmv+c7geE9h690de88iqEegbywRAQQQQAABBBYkQEBfEB8nI4AAAgg0UsBE8qZyo6Rl8Fi+54Z/yO0tDInxvauR6IyNAAIIIIAAAi0T4IecltEzMQIIIIDAHAT6RJybyym5fUX3A9d+s2e4h6A+Bz0ORQABBBBAAIFICLiRWCWLRAABBBCInMCWzK3tniPrRWVlHRffKaqbAgk2dbU9638g94mj7zi+pjoiI1bHORgKAQQQQAABBBBoiQABvSXsTIoAAgjEX6BBAf0EnGpORC50Azmvu+Ps4ubezx29cnxlQFCP//uKChFAAAEEEIizALe4x7m71IYAAgjEXsBWWWCfyk1N3b6s56oLh+SXaZ6hHvumUyACCCCAAAKxFSCgx7a1FIYAAggkSUDXqDqfX55/6fa7C8Mbh2TYI6gnqf/UigACCCCAQDwECOjx6CNVIIAAAgjMCOg6tWBwWcEfvKv3/g0Edd4WCCCAAAIIIBAlAQJ6lLrFWhFAAAEEZiWgJhucwBtcnvc/+42ukbUE9VmxcRACCCCAAAIItFiAgN7iBjA9AggggECjBKy2EeqF5tSuqAefuKf7odW7ZbfLre+N8mZcBBBAAAEEEFioAAF9oYKcjwACCCAQbgG1jJpdJlodPNbT96d35feurAV1EdNwL5zVIYAAAggggEDSBAjoSes49SKAAAJJFVBrFw2udkwHx/OF/m/0/XjpiaAuBPWkvieoGwEEEEAAgZAJENBD1hCWgwACCCDQYAGVnIlc6/vF28d6erfd3bH3LIJ6g80ZHgEEEEAAAQRmJUBAnxUTByGAAAIIxE1ARXpU7QOSdgZH8/kP3Jkb7h0S4/ti3BpNPQgggAACCERIgB9EItQslooAAggg0AiBoM8R3eak/MFlvQ++95s9wz0E9UY4MyYCCCCAAAIInEmAgH4mIV5HAAEEEEiGgMliDaS/6gS3r+j5wbu+0fevuSEZ4vtkMrpPlQgggAACCIRCoPYIGn4hgAACCCBQd4EtmVvbPUfWi8rKug/e2AFzonJhEFTOy3esKW7Jf2j0sokN/oiMWGOnZXQEEEAAAQQQSLoAVwaS/g6gfgQQQACBkwqo6ko/CD6p0223r+i5+qKvyPcyPEP9pFR8EQEEEEAAAQTqJEBArxMkwyCAAAIIxFNARVab6ufa8tnBb+Tv3zQkwx5BPZ69pioEEEAAAQRaLUBAb3UHmB8BBBBAICICwToTd2BZwR+8q3dkA0E9Im1jmQgggAACCERIgIAeoWaxVAQQQACB1guoyQYnCAZX5Kufu7PrgXUE9db3hBUggAACCCAQFwECelw6SR0IIIAAAk0UMNdEL3AcHVye9z/59e4H1+yW3S63vjexBUyFAAIIIIBADAUI6DFsKiUhgAACCDRHQFXTInKppzI43lP42F35vStrQV3EtDkrYBYEEEAAAQQQiJMAAT1O3aQWBBBAAIGWCKhKm6lc5ZgzOJ4v9H+99wfLCOotaQWTIoAAAgggEGkBAnqk28fiEUAAAQRCJaCWM5Fr3cAGj/X23fzNRSOLTwR14Yp6qBrFYhBAAAEEEAinAAE9nH1hVQgggAACERZQkR4JghsqVX9wLF+48c7ccO+QGN9zI9xTlo4AAggggEAzBPhhoRnKzIEAAgggkEgBFelVka1uKrh9aeGB9/+/3T/KE9QT+VagaAQQQAABBGYl4M7qKA5CAAEEEEBgjgJbMre2e46sF5WVczw1jod3qOhG3wk29mSes/e1f3j0ndPnVEZkxOJYLDUhgAACCCCAwPwECOjzc+MsBBBAAIEzCBDQ3wpkIjlTuyBt3nnd7avK7+7609Grp9b5BPW3WvEVBBBAAAEEkijALe5J7Do1I4AAAgi0VMDUVgYmH8+X3cFV3e+++Cvym8yQDPE9uaVdYXIEEEAAAQRaL8APA63vAStAAAEEEEiogIms9h37bHv++dtX5K/cOCTDnvEM9YS+GygbAQQQQAABEQI67wIEEEAAAQRaLGAia03cgeUF//Z7eveeS1BvcUOYHgEEEEAAgRYJENBbBM+0CCCAAAIIvEXAZL0EMrisp/r5u3MPnkNQf4sQX0AAAQQQQCDWAgT0WLeX4hBAAAEEoiegjqqe77g6sDzvf/Lr3Q+u2S27XW59j14nWTECCCCAAAJzFSCgz1WM4xFAAAEEEGiCgKmlReTStMrgWG/vn/1dzw9W1YK68Bn1JugzBQIIIIAAAq0RIKC3xp1ZEUAAAQQQmJWAqbRpYFdmxQZH8/kPf6Vw33KC+qzoOAgBBBBAAIHICRDQI9cyFowAAgggkEQBU+l0RN/TZqnBiUJ++zcXjSw+EdRFk+hBzQgggAACCMRRgIAex65SEwIIIIBAjAW0OzC9vloNbh/P9275+86H+obE+H4e445TGgIIIIBAcgT4hp6cXlMpAggggECsBKxgYjcF6crgssLe6+7p+pcCQT1WDaYYBBBAAIEECrgJrJmSEUAAAQSaILAlc2u758h6UVnZhOmSPEWHip4nrrupkHnetrR9bPSy4trKiIxYklGoHQEEEEAAgSgKcAU9il1jzQgggAACCLxZwGxpVf0/cUwHlxXefcW3Fu/rGJIhvs+/2Yk/I4AAAgggEGIBvnGHuDksDQEEEEAAgTkLqKxQsz8vlQ/dvqT7qku+KcNZgvqcFTkBAQQQQACBlggQ0FvCzqQIIIAAAgg0XOBs13E+7edt8Kz8O8+/Ux5JGc9Qbzg6EyCAAAIIILAQAQL6QvQ4FwEEEEAAgZALmARrU5L6olMYG7yn96Fzh2TYI6iHvGksDwEEEEAgsQIE9MS2nsIRQAABBBIlYLJegurg8h7/C3fnHjyHoJ6o7lMsAggggEBEBAjoEWkUy0QAAQQQQGDhAuaIyiZ1ZXBZvvIXd3X/4G27xVyuqC9clhEQQAABBBCoh4DWYxDGQAABBBBA4M0CX83t7c26cpOpXPXm1/hzSARMiuLoExrID7rGjuzvl/5ARXk8W0jawzIQQAABBJInwBX05PWcihFAAAEEEDghoJIVsytEbHAsX/jIPYWR5btltytsJsc7BAEEEEAAgZYIENBbws6kCCCAAAIIhEfAVDpV5Boxf/BYobDjzr4fLTkR1IU77cLTJlaCAAIIIJAAAQJ6AppMiQgggAACCMxSoFtMrnP8yuBYT98Hv975/UUE9VnKcRgCCCCAAAJ1ECCg1wGRIRBAAAEEEIiXgBVUgw96KWfwaKFw3VdzewtDYvzMEK8mUw0CCCCAQAgF+GYbwqawJAQQQAABBMIhoItckx2ZlA6s7HnwPXfmH+gmqIejM6wCAQQQQCCeAm48y6IqBBBAAIFWC2zJ3NruObJeVFa2ei3Mv2CBnKmcL2YbO9uerd6Y++TRdxxfUx2REXZ8XzAtAyCAAAIIIPBHAQL6Hy34HQIIIIBAHQUI6HXEDMlQqtqlohe5gZ2b61g1fW3v50avHF8ZENRD0iCWgQACCCAQeQFucY98CykAAQQQQACBpgucrYH8RefU9OCSnisuGJLdaePRbE1vAhMigAACCMRPgMenxK+nVIQAAgiEQuCrub29WVduMpWrQrEgFtEwAVP9TSD2vQNH3Wf+m2z2VZRb3xumzcAIIIAAAnEW4Ap6nLtLbQgggAACCDRBQM3OcUwGlxX8L369b3j9kAx7XFFvAjxTIIAAAgjEToCAHruWUhACCCCAAALNF1ARVZONnh8MLs9XP31X9w/eRlBvfh+YEQEEEEAg2gIE9Gj3j9UjgAACCCAQKgEV8UT0YkdtcHnB//P/p2fk7N2y2+WKeqjaxGIQQAABBEIqQEAPaWNYFgIIIIAAApEWUMmKyTtcCQaP5Qt/8rXC/StqQV3YTC7SbWXxCCCAAAKNFSCgN9aX0RFAAAEEEEi0gKp1iMi7U+YMjhXyu77R98DSE0Fd2Kg20e8MikcAAQQQOJmAd7Iv8jUEEEAAAQQQQKCeAiraJSbv8329ZLSn8NO7K//fw91TpcO3yC2BiLDrez2xGQsBBBBAILICXEGPbOtYOAIIIIAAAtETUJG8o3KjpDsHxvK91/9Dbm9hSIyfR6LXSlaMAAIIINAAAb4hNgCVIRFAAAEEEEDgTAK2SMW2V1IyuKT3gWv/e89wD0H9TGa8jgACCCAQdwE37gVSHwIIIIBAawS2ZG5t9xxZLyorX7+C2v3MfPj49SKJ/32nY7opI7Yx1/asv73zM6OXHF9VHZERbntP/FsDAAQQQCB5AgT05PWcihFAAIGmCJwqoBPOm8IfvUlUukTkQrPKud0dq4sfzPePXjaxwSeoR6+VrBgBBBBAYP4C3OI+fzvORAABBBBAAIG6C+gqC+xT7nT7wLKeqy78inwlwzPU647MgAgggAACIRUgoIe0MSwLAQQQQACBJAuY2NtUnc+3FzYN3F34/sYhGfYI6kl+R1A7AgggkAwBAnoy+kyVCCCAAAIIRFLAzM5xzBtYXghu+/u+4fUE9Ui2kUUjgAACCMxSgIA+SygOQwABBBBAAIHWCFhtX0Gz88wPBlfk/c98o2tkLUG9Nb1gVgQQQACBxgoQ0Bvry+gIIIAAAgggUCcBE/FM5CJzgsEVheDj93Tfv3q37Ha59b1OwAyDAAIIINByAQJ6y1vAAhBAAAEEEEBgTgJqGTO7XNUbGO/p/ehd+b0ra0FdxHhIwJwgORgBBBBAIGwCBPSwdYT1IIAAAggggMCsBEytw9Te5ZgOHisUPvSNvh8vPRHUhaA+K0EOQgABBBAImwABPWwdYT0IIIAAAgggMDcBlZyYvNf84uBYT++2uzv2nkVQnxshRyOAAAIIhEOAgB6OPrAKBBBAAAEEEFiggInkVe0DkpbB0Xz+A3fmhnuHxPhZZ4GunI4AAggg0DwBvmk1z5qZEEAAAQQQQKA5An2O6DYn5Q8u633wvV/r/lGeoN4ceGZBAAEEEFiYgLuw0zkbAQQQQACBkwtsydza7jmyXlRWnvwIvopAwwU61WSTK9WNHdnnguvbPzL6zulzKiMyYg2fmQkQQAABBBCYhwABfR5onIIAAgggcGYBAvqZjTiiSQKqOUflwpR453a1ryxf0/Wx0aun1vkE9Sb5Mw0CCCCAwKwFuMV91lQciAACCCCAAALRFrBVYvqJnrIzsKLn6ou+It/L8Az1aHeU1SOAAAJxEyCgx62j1IMAAggggAACZxDQNab6ubZ8avDuwvDGIRn2COpnIONlBBBAAIGmCBDQm8LMJAgggAACCCAQPgFdp+YPLiv4g3f1jmwgqIevQ6wIAQQQSJoAAT1pHadeBBBAAAEEEHidgIqabHCCYHBl3v/snV0PrCOov46H3yKAAAIINFWAgN5UbiZDAAEEEEAAgXAKmBuIXOg67sDKQvCJr3c/uGa37Ha59T2c3WJVCCCAQFwFCOhx7Sx1IYAAAggggMDcBdQygdllKdWBYz19f3pX/l9X1oK6iOncB+MMBBBAAAEE5iZAQJ+bF0cjgAACCCCAQBIE1NpFg6sdKw2O5Qv9X+/9wTKCehIaT40IIIBAawUI6K31Z3YEEEAAAQQQCLOASk5FrnUDGzzW23fzNxd9b/GJoC5cUQ9z31gbAgggEFEBAnpEG8eyEUAAAQQQQKB5AirSI0FwQ7XaNjCe7/vAVzq/1zckxs9RzWsBMyGAAAKJEOBffxPRZopEAAEEmi/w1dze3qwrN5nKVc2fnRkRaLCAyiuBBP86VQ0eGR+/YWxINGjwjAyPAAIIIJAAATcBNVIiAggggEALBLZkbm33HFkvKitbMD1TItBogU4V3Zhx3Y25zHN2XfvnR985vaIyIiPW6IkZHwEEEEAgvgIE9Pj2lsoQQACBlgoQ0FvKz+TNE8ip2gWelc7raT+7/KGuPx29aGqdT1BvXgOYCQEEEIiTAJ+dilM3qQUBBBBAAAEEWiKgqisDk48Xy+7g8u4r3/5NGc4OyRA/Z7WkG0yKAAIIRFeAbxzR7R0rRwABBBBAAIGQCajIanHcz1TzNrAif+XGO+XOlPEM9ZB1ieUggAAC4RUgoIe3N6wMAQQQQAABBCIrEKwzcQeksHbwa717zx2SYY+gHtlmsnAEEECgaQIE9KZRMxECCCCAAAIIJE3AMVmfDpyBZT3Vz/9d7sFzCOpJewdQLwIIIDA3AQL63Lw4GgEEEEAAAQQQmKOAuap6ftq1geV5/5Pf7H5wzW7Z7XJFfY6MHI4AAggkQICAnoAmUyICCCCAAAIItF5AVdMicmlVZXCst/fPvtHzg1UE9db3hRUggAACYRIgoIepG6wFAQQQQAABBGIvoCptGtiVJjJwLN97yz2FkeW1oC5sJhf73lMgAgggcCYBAvqZhHgdAQQQQAABBBBohIBaTsQ2m/kDE4X89jv7vr/kRFAXbcR0jIkAAgggEH4BAnr4e8QKEUAAAQQQQCDGAirSE5her743MJ7v3fL1zu8vGhLjZ7QY95zSEEAAgVMJ8Jf/qWT4OgIIIIAAAggg0EQBFek1sZtSaW9gWWHvdfd0/aRAUG9iA5gKAQQQCIGAG4I1sAQEEEAAgRgKbMnc2u45sl5UVsawPEpCoJECHSp6nuNWN+Yyz8tNbR8bvay4tjIiI9bISRkbAQQQQKD1AgT01veAFSCAAAKxFCCgx7KtFNVEARPJidoFanpee9uK6pbcJ0ffcXxNlaDexCYwFQIIINBkAQJ6k8GZDgEEEEiKAAE9KZ2mzoYLqHQ5ohd5gW3o7lwxvbnw+dErx1cGBPWGyzMBAggg0HQBPoPedHImRAABBBCIkkAQpcWy1lgLmMjqwHc+3TVVHFief9f5Q7I7bTyaLdY9pzgEEEieAAE9eT2nYgQQQACBOQjwjXIOWBzaFAGTYK2IfHF5oTBwT+9D5w7JsEdQbwo9kyCAAAINF+DnjoYTMwECCCCAAAIIINAAAZP1EpQHl/f4X7g79+A5BPUGGDMkAggg0GQBAnqTwZkOAQQQQAABBBCon4A6orLJcXVgRd7/1F3dP3jbbjGXK+r1E2YkBBBAoJkC2szJmAsBBBBAIDkCX83t7c26cpOpXJWcqqkUgdYKqMm0ObqvGjjDvWOHXuyX/kBFeTxba9vC7AgggMCsBbiCPmsqDkQAAQQQQAABBMItYCptYnZFSvyBsXzhI18r3L9it+x2hc3kwt04VocAAgi8KkBA562AAAIIIIAAAgjETMBUOlXkmrQ5A+OFnp3f6PvO0hNBXbh7Mma9phwEEIiXAAE9Xv2kGgQQQAABBBBA4HUC2m3mvD/w2wcmevo++PXO7y8iqL+Oh98igAACIRMgoIesISwHAQQQQAABBBCov4AWAg0+mEp7A+OFwnVfze0tDInxc2D9oRkRAQQQWJAAfzEviI+TEUAAAQQQQACB6AiY2VlmsiOT0oGVfQ++57/3DPcQ1KPTP1aKAALxF3DjXyIVIoAAAgi0QmBL5tZ2z5H1orKyFfMzJwIInFYgZybnp8XO62z7nf/uzg+Nvuv4udURGWHH99Oy8SICCCDQWAECemN9GR0BBBBIrAABPbGtp/AoCah0qehFbZbe0N6xrHh5/sOjmyc2+AT1KDWRtSKAQJwEuMU9Tt2kFgQQQAABBBBAYH4CZ3uB96ll0+0DK3uuuWC37E4bj2abnyRnIYAAAgsQIKAvAI9TEUAAAQQQQACBOAmo2NsCDb4wVugdvLPw4HlDMuwR1OPUYWpBAIGwCxDQw94h1ocAAggggAACCDRZQM3OcU0HlhX8L369b3g9Qb3JDWA6BBBIrAABPbGtp3AEEEAAAQQQQOB0AuaoycZUNRhYmQ/+4mtdI2sJ6qfz4jUEEEBg4QIE9IUbMgICCCCAAAIIIBBfAZVUIPb2tOMPLC/4f35P9/2rd8tul1vf49tyKkMAgdYJENBbZ8/MCCCAAAIIIIBAdARUsmLyDlX3tmP5wp98s3D/ilpQFzaTi04PWSkCCIRegIAe+haxQAQQQAABBBBAIDwCptIpIu/2zR0YK+R3faPvgaUngrpoeFbJShBAAIFoChDQo9k3Vo0AAggggAACCLRaoFtN3xf47sBoT2Hr3R17zyKot7olzI8AAlEXIKBHvYOsHwEEEEAAAQQQqJNAMK9xrOCo3ChpHRjL915/Z264d0iMnzHnZclJCCCQdAH+8kz6O4D6EUAAAQQQQACBVwUW9oOhLVKx7W7KH1jR+8C1X+v+P3mCOm8tBBBAYG4C7twO52gEEEAAAQRmJ7Alc2u758h6UVk5uzM4CgEEYiLQKaabPPHOy7U961/X/pGxd06fUxmREYtJfZSBAAIINExgYf9Q2rBlMTACCNRDwES09l89xmIMBBBAAAEE5iJgKstF5GNtlhlY2nvN5Xcue6R9SIb42XMuiByLAAKJE+AH98S1nIKTJPDI9u1rXdd1xo4ceXbzyIivIly9SNIboMW1fjW3tzfryk2mclWLl8L0CCAQCgF7tmry/cpY5VcDcmNZZ/4NORQLYxEIIIBAaAT4V8zQtIKFIFB/AVckF/j+ju6enk/v27HjnOHNmz2uqNffmRERQAABBGYjoGs81c+15VODdxeGNw7JsGc8Q302cByDAAIJEiCgJ6jZlJo8AV9kwnEcV1z3/ab6pa5C4VNP7Nq1jqCevPcCFSOAAALhEdB1YsHA8kJw2129928gqIenM6wEAQRaL0BAb30PWAECDRMoqU4EqhO1CUy1oKrXi8iXevL5Tzy2bdta6+93uaLeMH4GRgABBBA4hYDW9kcxO88JUrcty/ufubPrgXUE9VNg8WUEEEiUAAE9Ue2m2KQJqOdNuCJjKuK/VruJ9JrjfMDxvC/tq1b//KmdO9cQ1F/T4X8RQAABBJorEKRU5CLXcW5bWgg+fk/3Q6t3y26XW9+b2wVmQwCB8AiwSVx4esFKEGiIwBMf+tD1gdmHRaTnpBOYHVKRnzqu+8MLRV6QPXsCNpM7qRRfnKMAm8TNEYzDEUBAzHTKEXnc1+CH+dHR398i/cGJB5KAgwACCCRDgCvoyegzVSZYIPD9CQuCmdvcT8qgushUt/pBcMej1erHnti+/WyuqJ9Uii8igAACCDRYQNU6TO1dKjIwlu/u/3rvD5bVrqjXPqjV4KkZHgEEEAiFAH/ZhaINLAKBxgn8YseO813VW0R106xmMXtFRB7Oijx0nuvu54r6rNQ46CQCXEE/CQpfQgCBOQmYyKg4+rOKU3x40aGpQ7fILUFtW5U5DcLBCCCAQIQEuIIeoWaxVATmI+CqTuirG8XN6nzVxaK6fVrkjsfMPvKr/v6Vu9lMblZ0HIQAAgggUF8BFclrYB/wqpmB0Xz+A1/p/F7fkBg/v9aXmdEQQCBEAvwFF6JmsBQEGiHgZbPjger4XMdW1SVqtrMcBHesC4Jbnr755hUE9bkqcjwCCCCAQD0EHJE+R3RbWzo9sLxw//u+1v2jPEG9HrKMgQACYRPgFvewdYT1IFBngUcuvTTlnH32zaK6U0Qy8x7e7CUT+VdP5Me/dt2X+9lMbt6USTmRW9yT0mnqRKAFAmovaeAMH3c6njh69F8mh2Sodus7vxBAAIHICxDQI99CCkDgzAKP7tjxXlH9sKr2nfnoMxxh9vvA7Eee5/3kGZEDBPUzeCX4ZQJ6gptP6Qg0ScDMXgwcfXAi5T859crD0wT1JsEzDQIINEyAgN4wWgZGIDwCj+/cebmo3mIib6vjqvaLyEMPV8dqAAAgAElEQVRSqTz8H5nMKwT1OsrGZCgCekwaSRkIREJAnw0Cuf/lYy/8SuT5MkE9Ek1jkQggcBIBPoN+EhS+hEDcBHzVCRM59aPW5lfwChH5qLnuHecEwdZHd+5cwmfU5wfJWQgggAACCxWwNY5jn12eP3tgRf7KjXfKnSnj0WwLReV8BBBogQBX0FuAzpQINFvgsW3blqnn3WKq727U3Gb2gooMZ1z3578UOcQV9UZJR2dcrqBHp1esFIE4CaiIBSrPVNTuO3TE+81/k82+ivJotjg1mVoQiLEAV9Bj3FxKQ+A1gXaRRlxBf234mf9V1VWi+ufFILhjrdmNT2/bdlbtirqI8A+Bb5DiDwgggAACjRQwEVWTDZlAb1ue9z97Z9dD64Zk2OOKeiPVGRsBBOolwA/O9ZJkHARCLFD7YWXfhz70wSAIbhHVjqYsNQieU8d50AmCRy686KLDOjRUu3rBFYym4IdjEq6gh6MPrAKBxAuYlsyRp6q+Pdh37Ojz/dIfcEU98e8KABAIrQABPbStYWEI1FfgsZ07r9ETG8Utre/IZxjN7FnXbK/veY++fdOmIwT1M3jF6GUCeoyaSSkIxEHA7Hjg6hMVX0fOGjuyn6Aeh6ZSAwLxE+AW9/j1lIoQOKlAgzaKO+lcb/ii6hrfcT5tQXDHvqeffv8jW7f22tBQ7e8e/oHwDVD8AQEEEECgoQKq7U4gV2XEBsbzhf57Cvct3y27XWEzuYayMzgCCMxNgB+Q5+bF0QhEVuCR7dvXquPUnoV+acuKMDMV+a2JPFAxe/wdF100qkNDQcvWw8QNFeAKekN5GRwBBBYoYCJjovZzc/yf5A+PH7xFbql9P+KjWAt05XQEEFiYAFfQF+bH2QhERiClOuGqjrd0wapqqutE5LMpkb9+bN++zT/p7y+8ekW9pUtjcgQQQACBZAmoSI+aXu/46dvG8oUb/77zob4hMX42TtbbgGoRCJ0AfwmFriUsCIHGCBQ8byIwOyZmrb9ireqI46x3HOdzGd//z088/fQ1P/rgB/ME9cb0nlERQAABBE4nEPSpyFY/XR5YWvjB++/p+kmBoH46L15DAIFGCnCLeyN1GRuBkAk8umvXDSpyi4j0hGlpKlI1s1+LyN7AdfddumnTBLe+h6lD81sLt7jPz42zEECgtQKO6ktBEPwwUHn85dEfTwwJH8VqbUeYHYFkCXAFPVn9ptqEC/jV6oQFwUTYGEzEE9VNIvIF1/f/0xNPPnnlT2+8sYsr6mHrFOtBAAEE4i8QmC0T1T9xzRlYVnj3FX+3aLhzSGY2N41/8VSIAAItF3BbvgIWgAACTRO4bePGblM9R1QXNW3SuUyk6orqYhG51E2n1x04cKA0eMEFY2fdckt1ZGSEjXvmYhmCY7dkbm33HFkvKitDsByWgAACCMxNQKVbRS72AtvQ3rli+r2FraNXjm8KRoTvR3OD5GgEEJiLAFfQ56LFsQhEXKD2qDVt9UZxszFUTYvIReI4AxXf/8ubHn/88n3XX98xdOLxbLMZgWMQQAABBBCoi4CJrHZ959NdU4WBpfmrN90pj6SMR7PVxZZBEEDgrQIE9Lea8BUEYiuQcd0JEwndLe6nAc8Eqm93XHcw6Oy8fdtjj13yyNat7QT104jxEgIIIIBAQwRMZK0r+kWnMDZ4T+9D5w7JsEdQbwg1gyKQaAECeqLbT/EJFJhU1SMqUopU7apZU73UPO8vJZW6/aYnn7x4+OMfzw6J8HdYpBrJYhFAAIFoC5iIisl6CaoDy3qqn7879+A5BPVo95TVIxA2AXZxD1tHWA8CDRZ4bPv296nj3GKqfQ2eqmHDq8hxC4KnReRfDhSL//7z++6rDIm0/vFxDas4mgOzi3s0+8aqEUBgDgKmJVF7Ogj0wfyx9z7XLxKoKHumzIGQQxFA4I0CBPQ3evAnBGIv8PjOnZebyIdFdU3kizWbMrOnUkHwL+XFi//90rvuqqoIPxiFpLEE9JA0gmUggEDjBUyPmyv7fL880js28WK/9BPUG6/ODAjEUoDbQ2PZVopC4NQCtY3iJAobxZ26hD++otqhjnNF1XX/Wg4fHty3a9fG4c2bvZlbEP94FL9DAAEEEECgsQJq7RrYlZ6kbhvP5z/8tcL9K3bLblfYTK6x7oyOQAwFCOgxbColIXA6gbLjRG2juNOVc+I11U5H9SoT+euuQuG2p3fsOJegfmY2jkAgyQJ8JibJ3W9g7So5E31PytzbjhUKO765aGQxG8k10JuhEYihAAE9hk2lJAROJ7BocnLCMYvSTu6nK+cNr5lIl6q+u6x6R3c+/4Wndu3aQFB/AxF/QACBVwX4AYi3QiMFVKRHTK6rVvw/rW0k18i5GBsBBOIlwPenePWTahA4o8C6d75z0kQOitnUGQ+O6AGq2iWO856K2R1dvb2fe7K/fz1BPaLNZNkIIIAAAggggECCBAjoCWo2pSJQE9ChodqdnWMRex76vJqnqt0qcq0fBHf0FAqf2bdjxzkE9XlRchICCCCAAAIIIIBAEwQI6E1AZgoEwiZQ2yhO47JR3Oxwe0z1fcGJW9//4oldu9YR1GcHx1EIIIAAAggggAACzRMgoDfPmpkQCI2AU6lMaEw/h35aZNW8OM51ZnZHT0/PJ3+1bdtagvppxXgRAQQQQAABBBBAoIkCXhPnYioEEAiJgOe646Y6ntgHhqsWzHVvKLruZT2Fws+f3r592FKp52TPnoDnqIfkTcoyEEAAAQQQQACBBAoQ0BPYdEpGQKampiyXq11FD0w1sXfSqEivqd5YdZzLH69Wf+bt3Dlirvs8QZ3/jyCAAAIIIIAAAgi0QiCxP5i3Aps5EQiLwEX33z8ViBwIRGL5uLW5OptqnzjOB6sidzxWqfzZk1u3rrb+ftdEdK5jcTwCCCCAwFsFeO78W034CgIIIHAyAa6gn0yFryGQAAFHtRbOa7e5dyeg3NmVqLpIXXdr4LrveLxa/alu3/6QpVIvckV9dnwchQACCJxKgCtCp5Lh6wgggMAbBQjob/TgTwgkRsCvVCYc150Q5SLxm5tuIovFcW4Ws3c+FgQP686dPzLX3U9Qf7MUf0YAAQQQQAABBBCopwD/oFlPTcZCIEICTm2jOG5xP23HTHWJiuxQ1S894fsffvSmm1bu5tb305rxIgIIIIAAAggggMD8BQjo87fjTAQiLVAxm9QTt7lHuo5mLN5ElprqLieT+dI6s/6nb755BUG9GfLMgQACCCCAAAIIJEuAgJ6sflMtAn8QKBSLk2Z2VMzKf/givzmTwDIx6y+77h1rg2DXkzt3Lieon4mM1xFAAAEEEEAAAQRmK0BAn60UxyEQM4Fz7ruvpI5zWFXHY1Zaw8tR1WUq8mFf5I4NQbD919u2LSWoN5ydCRBAAAEEEEAAgdgLENBj32IKRODUAn61OmFmPGrt1ESnf0V1uS/y0eOp1JfX+v62R3fuXEJQPz0ZryKAAAIIIIAAAgicWoCAfmobXkEg9gLKRnH16vEKVf2Ymn15TbV60y+2bFlMUK8XLeMggAACCCCAAALJESCgJ6fXVIrAWwQ8x5lgo7i3sMz7C+o4K13HudXNZr+8Ogi2PLljx6JaUBcRnmU3b1VORAABBBBAAAEEkiNAQE9Or6kUgbcIWKUypUHALe5vkVnYF1R1lSfycV/ky+cEwQ2P9ff32dBQ7e9bgvrCaDkbAQQQQAABBBCItQABPdbtpTgETi8wNjY2KSIHxWzq9Efy6rwEHGe1iXzK8f0v73vqqev+bceOwqtBfV7DcRICCCCAAAIIIIBAvAUI6PHuL9UhcFqBa0dGqhWRMRPhKvpppRb2YqC6JhD5TNFx/uaJffve98v+foL6wkg5GwEEEEAAAQQQiKUAAT2WbaUoBGYvkHaccSWgzx5sAUeayNtM5HPlavVvnty3b/Oz27f3cEV9AaCcigACCCCAAAIIxEyAgB6zhlIOAnMV8B1nwlS5gj5XuPke7zhijrPWV/3CaO2K+tNPX/NIf383QX2+oJyHAAIIIIAAAgjER4CAHp9eUgkC8xLwRSa5gj4vuoWdpKqieo4FwRdrn1F//Mkn3/XTG2/sIqgvjJWzEUAAAQQQQACBKAsQ0KPcPdaOQB0EOmoB3WxczYI6DMcQcxVQdUR1g6jelslm73h0376rftnf30lQnyskxyOAAAIIIIAAAtEXIKBHv4dUgMCCBDbt2TOpqi8Ln0NfkGMdTnbNcc5Txxko+f4dj+/b985911/fMXTi8Wx1GJ4hEEAAAQQQQAABBMIuQEAPe4dYHwJNEKh9Bp3PoTcBehZTqIgnqptM9fZqZ+eXtj/xxGU/6e9vI6jPAo9DEEAAAQQQQACBiAsQ0CPeQJaPQD0E/EplwoKAjeLqgVmnMVQ1paoXmOv+Zdb3/3rbY49dMrx5c5agXidghkEAAQQQQAABBEIoQEAPYVNYEgLNFnBVJxzV8WbPy3xnFjCRjKherKnUf+rp7f3PNz355MXfu/HGzJAIf3+fmY8jEEAAAQQQQACBSAnwA16k2sViEWiMgO/7kyJS+49fIRUwkayJXOKK/NXStra/2rZjxwWPfOYzKYJ6SBvGshBAAAEEEEAAgXkIENDngcYpCMRNoLe3d7KqOipm5bjVFrd6TLXNVC9Tx/lr59Ch/7zz5ps3DW/e7BHU49Zp6kEAAQQQQACBJAoQ0JPYdWpG4E0Ca/7H/yi6qgfZKO5NMCH+o4m0i+NcXnXdL3UVCn+1Y8eOjbWgbiIa4mWzNAQQQAABBBBAAIHTCBDQT4PDSwgkScCpVieUjeKi13LVDlV9p6/6pVw+/5f7du0iqEevi6wYAQQQQAABBBCYESCg80ZAAIEZAV91QtkoLrrvBtVOx3GuNJEvdefzg4/ffPN5XFGPbjtZOQJRFwiiXgDrRwABBFokQEBvETzTIhA2Aa/2LHQ2igtbW+a8HhPJieNcrZ5Xu/X9tsd27DiXoD5nRk5AAIEFCvAD5gIBOR0BBBIrwN+fiW09hSPwRoGuIJhUEZ6F/kaWyP7JRLpU9d2iekd3ofD5p3bt2kBQj2w7WTgCCCCAAAIIJESAgJ6QRlMmAmcSOPLii1OByCEVOX6mY3k9OgKq2iWqm6siX+rJ5z/75LZt6wnq0ekfK0UAAQQQQACBZAkQ0JPVb6pF4JQClz36aEXNjpoZV9FPqRTpF3rMcd5rnvel7p6eT//brl3rCOqR7ieLRwABBBBAAIEYChDQY9hUSkJgvgKBai2cj8/3fM4Lv0CgmhfXfX/J7I6uQuFTj23btpagHv6+sUIEEEAAAQQQSIaAl4wyqRIBBGYj4J4I6LXN4vgVcwFTLajI9ZpKXdpTKPz80e3bhy2Vek727AlUhLdAzPtPeQgggAACCCAQTgECejj7wqoQaImAbzbpqk62ZHImbYmAifSK6o2u41z+eLX6M7e/f9hEXiCot6QdTIoAAggggAACCRcgoCf8DUD5CLxeoLNanTyeSk2ImYmqvv41fh9vAVPtE9UP+r7/jidUH5bt239oqdSLBPV4953qEEAAAQQQQCBcAnwGPVz9YDUItFRgw3e+MymqLxuPW2tpH1o6ueoiE9lmrvvlx33/o4/v3LnK+vtdE+EfbFraGCZHAAEEEEAAgSQIENCT0GVqRGCWArXPHvtBMK6qbBQ3S7MYH3aWqG4XkS8/Vq1+5Ombb16xm6Ae43ZTGgIIIIAAAgiEQYCAHoYusAYEQiSQcd1x5Qp6iDrS4qWoLlbH2Vl13b/ZYNb/5M6dywnqLe4J0yOAAAIIIIBAbAUI6LFtLYUhMD8BE5ms/Te/szkrrgKmusQ36w9U/2ZtEOx6+KablhHU49pt6kIAAQQQQACBVgkQ0Fslz7wIhFTAF5nkCnpImxOCZZnIUhX5cDad/pt1QbD90Z07lxDUQ9AYloAAAggggAACsRAgoMeijRSBQP0EgmJxKgiCMTGr1G9URoqdgOoyEfmoI/Jf1vv+tl9s2bKYoB67LlMQAggggAACCDRZgIDeZHCmQyDsApd997vHPdc9wEZxYe9USNanujxQ/ZjX1vZfzqlWb3pyx45FtaAu7PoekgaxDAQQQAABBBCIkgABPUrdYq0INEnAqtUJC4KJJk3HNPEQWGGOc2tV5L+urVZvfOzGG/vaO8pOIAGPZ4tHf6kCAQQQQAABBJogQEBvAjJTIBA1gcBsUlUJ6FFrXAjWq46zUh3nE9bW9l/XXvid6zNtU90qRkgPQW9YAgIIIIAAAgiEX8AL/xJZIQIINFsgSKcnXbNJMWv21MwXEwFVXZVNH1/Xu+TfO0cPrpuulLsOBlWnbKK8qWLSY8pAAAEEEEAAgfoLENDrb8qICEReoE1kslQL6PxCYIECjut3ZtvHzk5lppaXS537y8WOQxJ4BPUFunI6AicTCESEWyNPJsPXEEAAgegI8Pd4dHrFShFopsCkL3JIRY43c1Lmiq+A61Zybe2j53V2v/L2TPv4Msepprn1Pb79prLWCPBDXWvcmRUBBBCopwB/l9dTk7EQiInApj17ym4QHDYzPocek56GpYxaUM+2H91YC+rptmNLHSdIEdTD0h3WgQACCCCAAAKtFuAW91Z3gPkRCKlAoDqhIrX/Fod0iSwrwgKOW+7KdpQ3pbNT4+Vi5wuVUu6wBVrlM+oRbipLRwABBBBAAIEFCxDQF0zIAAjEU8AzmwxU+Rx6PNsbiqpqW7u7M0H96PmZ7OSxYjE3E9QlEJ+gHooWsQgEEEAAAQQQaLIAAb3J4EyHQFQEAt+fNNetPW4tKktmnREVqL3D1C13t3ccPd/PTBwrzQT1jiNiDkE9oj1l2QgggAACCCAwPwEC+vzcOAuB2AsEmcyU6/u1W9wtECGlx77jYSjQ1PXKPe2dR7qr2VpQ73q+Uuo4oqYBV9TD0B/WgAACCCCAAAKNFmCTuEYLMz4CERX4nUhtJ/eXfTaKi2gHI71s9WaC+uELcj0H3p7KTvWJBi6byUW6pyweAQQQQAABBGYhQECfBRKHIJBEgVv27PFdkbHaRnFJrJ+aWy+gIo7rlvJtnYcuzPW8cnEqc7xXVByCeut7wwoQQECk9tx5fiGAAAL1FuAW93qLMh4CMRIom016J3Zzj1FVlBI1gRNBvVho6yz2pP3MaGm66/lKuXNUzYxb36PWTdaLQHwEuMoVn15SCQJhEiCgh6kbrAWBkAm4ZpOO6qSFbF0sJ5kCquJ4XqnX7Tzc4/uTR8vTuRfK5bYxNSWoJ/MtQdUIIIAAAgjEToCAHruWUhAC9ROoBsGk4zg8aq1+pIxUBwFVcz1vepHbWSykq+mjpWL3C5Vy25iZmory70l1MGYIBBBAAAEEEGiNAAG9Ne7MikAkBNqKxclqLle7lbgiqqlILJpFJkZgJqinSos873C+Wk0fLRd7XiiXM8cI6ol5C1AoAggggAACsRPg4zOxaykFIVA/gYvuv39KzQ4IG8XVD5WR6i+ggeelime1dR68uLPr4PmpTLFHLHBMjMcD1l+bERFAAAEEEECggQJcQW8gLkMjEAeB4MQmcbXnoRfiUA81xFdAZ4L69OIOr1SoZjJHysWuFyul7Lgpt77Ht+tUhgACCCCAQLwECOjx6ifVIFB3AU+k9hn0CR4nU3daBmyQgGqQSqWnl3ipUm81mzlcLHbt90vZcVGHt3GDzBkWAQQQQAABBOojQECvjyOjIBBbgcBsUlXZKC62HY5vYa8G9aWuV+yrZrKHyqXu/X45O86j2eLbcypDAAEEEEAg6gIE9Kh3kPUj0GCBNrPJaQJ6g5UZvpECjmOpdGZ6WSpV6qtWsodKM0E9M0FQb6Q6YyOAAAIIIIDAfAQI6PNR4xwEEiTgFYuT0tZ2yESmVbUtQaVTaswE1AnSqczx5V6quKhaaTtYKnX93i8T1GPWZspBAAEEEEAg0gLs4h7p9rF4BBovcM5995V8xzmsquONn40ZEGi8wImgPrWiI3fw4rbcoQ1uqphTdnxvPDwzIIAAAggggMAZBbiCfkYiDkAAAUd1wmqfRRdZjAYCcRFQ9TPpzNTKVLp4VrXS9kpxOvdSUMlMcut7XDpMHQgggAACCERPgIAevZ6xYgSaLlDbyd0/sZt70+dmQgQaLVAL6qn05CovNX1WtdT2SqnU9ZJfSU8R1Bstz/gIIIAAAggg8GYBAvqbRfgzAgi8RcBOhHN2cn+LDF+Ik4Cqn01lJ892M9OLq+X2A6Vi7uWAoB6nFlMLAggggAACoRcgoIe+RSwQgdYLWKUypaoT6jgWiGjrV8QKEGicgKN+Np2ZWO2lppb4pfaXS+Xul/1K6jhX1BtnzsgIIIAAAgggcEKATeJ4JyCAwBkFxsbGJtV1XzaziTMezAEIxETAcYJsqm1yTUfuwNvbOo68zU1V2tlMLibNpQwEEEAAAQRCKkBAD2ljWBYCYRK4dmSkWvX9MRMhoIepMaylKQLq+G3ptom3deRevqSt8+ga1y0R1JsizyQIIIAAAggkT4Bb3JPXcypGYF4CrtmkqE7avM7mJASiL+DUgnp2fG0qfXxppdzxUnE6d8B8r8it79HvLRUggAACCCAQFgECelg6wToQCLlAEASTjuOwUVzI+8TyGi+gTrU9nT22LpWeWlYudfy+VMy9QlBvvDszIIAAAgggkAQBAnoSukyNCNRBwM9kJjUICOh1sGSIeAjUgnqm7dg5qczxZZVS++9Lpa5XrOqWuKIej/5SBQIIIIAAAq0QIKC3Qp05EYigQIfI5PEgGHNVK6KaimAJYV3ya58aYHf8sHboDOtynEpHpu3Y+lTm+PJKqWN/qZQ7SFA/AxovI4AAAggggMBJBdgk7qQsfBEBBN4ssGnPnklP5GVho7g308zvz2amIlUVecFE9s9vEM4Kk8CJoD62obPrwCXZ9rEV6lQy7Poepg6xFgQQQAABBMIvwBX08PeIFSIQGoFAtbaL+6SKFEKzqAgtxBGxwKx2xXzaVH+tqsNt5fJTU6nUjSLy4QiVwlJPIzAT1NvHzk1lJleUS7kXy8XOgxa4FW59Pw0aLyGAAAIIIIDAjAABnTcCAgjMWsAzm/RV+Rz6rMX+cGAtlNey+SExe9T1vOGL9ux59rVXH92167Xf8r8xEnDcame2ffS8TGZyRWkmqHccIqjHqMGUggACCCCAQAMECOgNQGVIBOIqENQetSZSe9xaXEusb11mgarWgvmz4jg/9NPpX1z2v//34fpOwmhhF1C3ksu2H92YykxMlIudL1RKXYcs0CpX1MPeOdaHAAIIIIBA8wUI6M03Z0YEIivg+/6km0pNvLarWWQLaezCa58tDywIJlT1KfH9kWNjY/9+7chIsbHTMnrYBVy3kmvrGN2UyU6Nl2aCeu4wQT3sXWN9CCCAAAIINFeAgN5cb2ZDINIC5Wx2KhMEhx2z2meo2yJdTP0XXwvmfiDysmP2cEn1x1fcey+bv9XfOfIjOm65q63j6Pnp7OR4qZh7vlLKHZZAfK6oR761FIAAAggggMCCBQjoCyZkAASSI3DVnj3Tj+zcechObBaX+ID+uk3fyiryjIkMm+vuu3jPnmPJeVdQ6XwFXLfc1d5x5AI/c2y8VOx+rlLqOCLmENTnC8p5CCCAAAIIxECAgB6DJlICAs0UCE7s4l7byf2sZs4bsrlmNn0LRI6YyOOO6vDFF1zwWx0aCkK2TpYTAQHXq3a1dR65MJMdP1Z8NairacAV9Qg0jyUigAACCCBQZwECep1BGQ6BuAu4ZpOOyKQlcKM4NQtEtRbCnw9EfuQFwc8u+qd/OjjT829/O+6tp74GCtS2XXS9SndH55ELg7aJseJ01/PlUvtRgnoD0RkaAQQQQACBEAoQ0EPYFJaEQJgF/CCYVNdN0qPWZjZ9E7MpcZxfWrk8Epj96rLvfvd4mPvE2qIqYOq4pXx756GebCY9Ol27ol7uHFUz44p6VHvKuhFAAAEEEJi9AAF99lYciQACIpKtVicrrlu7xT3uv2Y2fTOzV8TsZ77n/eiyPXteiHvR1BcaAXVS5UJH6lDerxwbnbn1naAemuawEAQQQAABBBolQEBvlCzjIhBTgfKBA5PO2We/LCITIpKLXZm129hFqiLyH47ZsJbLj1/4f//vaOzqpKCoCKibKhfaU4d6/Or4aHm6+7lyuW1MTbmiHpUOsk4EEEAAAQTmIEBAnwMWhyKAgMhljz5aeXTNmlExq11Fj0tAf+029loQ3xeYDY+Pjv7m2pGRWlDnFwItF1ARx/NKvW7nwXymmjlaLHY/Xym3jZmpqWht00J+IYAAAggggEAMBAjoMWgiJSDQbIHaRnGB2aREfKO41zZ9U9UX/SD4se+6D79jz54DzfZkPgRmK6Aqjpsq9XV4h/LVavpouZh/vlzOHCOoz1aQ4xBAAAEEEAi3AAE93P1hdQiEUsBEapvERXWjuJmr5WY2rar/5puNjDvO09fee29U6wnle4RFNVhAzfVSpUWu90ohXc0cKRZ7XqgS1BuMzvAIIIAAAgg0XoCA3nhjZkAgdgK+2aSrOhGx+2pnnl2uIrXHov0iKzKy8dvffj52zaGgRAnoTFAvntXpHSxUq9nDpenci5VKdpwr6ol6G1AsAggggECMBAjoMWompSDQLIHOanVyyvOOOWZVc5xw/z1iFphqoCK/c1SHM77/6Hn/9E9HmmXFPAg0RUADz0sdX+J5xb5qte1QcTr3YrWUmRB1apse8gsBBBBAAAEEIiIQ7h+sI4LIMhFImsCG73xnct+uXTM7uZtIPoT1v7bp2zEzeyrlusOuyK837dlTDuFaWRIC9ROYCepTSzu86UXVbOZQqdhNUK+fLiMhgAACCCDQcAECesOJmQCB+AmoiP28Wp1wHWdSVcMU0GeeXS4iv5cgeNh8/8eXfOc7L8WvA1SEwOkFVAMvlZ5e6qVKfVtDfQoAACAASURBVH42e6hY7H7RL2cmjB3fTw/HqwgggAACCLRYgIDe4gYwPQJRFXA9b9IRmWz159AdEQvMTFWLZvZrERkuTU8/dcV9941H1ZZ1I1AvAdUg5aWPL+tIFRdVK20HS8Wu/QT1eukyDgIIIIAAAvUXIKDX35QREUiEgOc4E34QtHLn85lN3wKzwyLyqGs2fMG99z5bu7qfiAZQJAJzEKgF9VR6arlXu/W90nawXOzaX61kJrmiPgdEDkUAAQQQQKAJAgT0JiAzBQJxFPBFJlWk6Tu5v/bscjF7TlR/aK77i0v27DkUR+NY1VT7ZxONVUWRLEadIJ3KTK3wUtNnVSttrxSLXb8PCOqR7CWLRgABBBCIpwABPZ59pSoEGi4QFItTlskccYOgKKrZBk944tnlIhOq+rRUKiPd4+P/tmZkpNjgeRm+XgKE83pJ1mWcV4P6Si81vbhSbjtQKnX/Pqikp7iiXhdeBkEAAQQQQGDeAgT0edNxIgLJFrjsu989/uiOHQdNtXYlvVEB/bVN3162IPipq/qvF9177/5ky1M9AvUTqAX1dHZqVSpTXFwtnQjqfiV1nKBeP2NGQgABBBBAYC4CBPS5aHEsAgi8QSAwm3RVJ0Sk7w0vLOAPr236JiJlE/mNmA2r2b5L/vmfxxYwLKcigMBpBFT9TCo7ebaXqV1Rbz9QLna9RFA/DRgvIYAAAggg0CABAnqDYBkWgSQIuGa1q+f12sn9tU3fjprI47VN357xvN/esmePnwRLakQgDAKqfjadmVjtpY8vqZY7Xi4Vu14KKt40V9TD0B3WgAACCCCQBAECehK6TI0INEggSKcnayFdbP4bp7+26Vsg8oKa/ahcrf7siu9855UGLZlhEYi8QDP223Nmgvr4mlRqakm51P5yuZh7OfDTBPXIv3soAAEEEEAg7AIE9LB3iPUhEGKBNpHJku9PiuPMdZUzm76J2ZSo/krMRqxS+eWl3/3u8bkOxPEIJE2gmfvtqeO3Zdom3pbKHF9aKXe8VJruetl8r8gV9aS966gXAQQQQKBZAgT0ZkkzDwLxFJhUxzlgtavoqp2zKHFm0zdTfSUw+7m57kOX7dnzwizO4xAEEGihgFML6tnxten08aWlYvtL5VLXAYJ6CxvC1AgggAACsRUgoMe2tRSGQOMFNu3ZU35s587aZ8Zrn0U/dUA3C0Skqqq/NdVhL51+7ML/9b9GG79CZkAAgXoKqFNtz7aPr0tljy+rljr2l0pdr1jVLXFFvZ7KjIUAAgggkGQBAnqSu0/tCNRBwBWZDE6+UdyJ29iDYCwQ2aeeN+z/7ne/uezRRyt1mJYhEECghQKuU213246tT2WOL6/MBPXcQYJ6CxvC1AgggAACsREgoMemlRSCQGsEare3156F/trsr236ZiL7gyD4sak+fNm997782uv8LwIIxEfAcSodmbaxDan05PJyqXN/qdh5UAKvzBX1+PSYShBAAAEEmitAQG+uN7MhEDuBwPcn1fMmzCxQkdomb/9eDoKRTs97atO3v/2H4B67wikIAQT+IOC41c5s+9i56czkinIp92K52HnQArdCUP8DEb9BAAEEEEBgVgIE9FkxcRACCJxKIMhkplyzZzUIxiQIRt7+z//83KmO5esIIBBvgRNBffS8TGZyRanY8WKplDskBPV4N53qEEAAAQTqKkBArysngyGQPIHfidR2cP8/t9x7r5+86qkYAQROJqBuJZftGNuYyk5NlIudL1RKXYcs0CpX1E+mxdcQQAABBBD4owAB/Y8W/A4BBOYhcMuePQTzebhxCgJJEHDdSq6tY3RTJjs1XpoJ6rnDBPUkdJ4aEUAAAQTmK0BAn68c5yGAAAIIIIDArAQct9zV1nH0/HR2crxUzD1fKeUOSyA+V9RnxcdBCCCAAAIJEiCgJ6jZlIoAAggggEArBVy33NXeceSCIDN+rFjser5S6jgi5hDUW9kU5kYAAQQQCJUAAT1U7WAxCCCAAAIIxF/A8Srd7Z1HLvSz48dKxZ5nq6X2o2YacEU9/r2nQgQQQACB0wsQ0E/vw6sIIIAAAggg0CABdyaoH7rYz6bHakG9Uuo4KmZGUG8QOMMigAACCIRegIAe+haxQAQQQAABBOIt4HrlnvbOg2+vBfXydPfvSuXOUSWox7vpVIcAAgggcFIB56Rf5YsIIIAAAggggECTBWpBPZs7dEmu56VLvMxUQVQcFdMmL4PpEEAAAQQQaJkAV9BbRs/ECCCAAAIIIPBmgVoad91SviN3uMevHBut3fpeLneMcUX9zVL8GQEEEEAgjgIE9Dh2lZoQQAABBBCIvICpmyoX2lMH85lq5mhpuvu5WlCv3fmuohb58igAAQQQQACBkwgQ0E+CwpcQQAABBBBAIDQC6nql3o7cwXy22nakON39fLncdoygHpr+sBAEEEAAgToKENDriMlQCCCAAAIIINAYARNxHG96UVtuujdTbTtcnO55vlJOj5spV9QbQ86oCCCAAAItECCgtwCdKRFAAAEEEEBgfgIq4rje9FkdncVev5o9XJzueqFSyRLU58fJWQgggAACIRMgoIesISwHAQQQQAABBGYhoOa6qenF7V6xz6+2HaoF9WopMyHqBLM4m0MQQAABBBAIpQABPZRtYVEIIIAAAgggMBsBVXO91PElnV6xr5rNHCoWu18kqM9GjmMQQAABBMIoQEAPY1dYEwIIIIAAAgjMTUADz0tPL+1IlRb52ezBE0E9PckV9bkxcjQCCCCAQGsFCOit9Wd2BBBAAIGTCtSeolV7Ija/EJibgM4E9ePLOlLFRdVs28FSsWu/X85MGI9mmxskRyOAAAIItESAgN4SdiZFAAEEEDi9QNzDOf8Acfr+L/xV1SCVSk8td73jZ/mV9lfKxa791UpmkqC+cFtGQAABBBBonAABvXG2jIwAAggggMApBOL+DxCnKLsFX3YcSzmZqRVeavqsSqXtlVKx6/cBQb0FnWBKBBBAAIHZCBDQZ6PEMQgggAACCCAQaQF1gnQ6M7UynS6eVS5lXymVun8fVNJTXFGPdFtZPAIIIBA7AQJ67FpKQQgggAACCCBwSgH1M+ns1KpUpri4Wmo7UAvqfiV1nKB+SjFeQAABBBBoooDTxLmYCgEEEAiHwNCQI7v7XTF2IQtHQ1gFAs0XUPUzqezk2R1dBy5pyx1Z56SKHSrGZw+a3wpmRAABBBB4nQBX0F+HwW8RQCDWAiq7+51Vh1NdXsczl8rxzCL9nx/7xW/lf/5HrKumOAQQOK2Aqp9NZyZWu16xu3g8/7tKqePoaU/gRQQQQAABBBooQEBvIC5DI4BACARMdPPIZvfAc0tWVKfc90q7bhGTtSL6oIn9IgQrZAkIIIAAAggggAACCMwIENB5IyCAQDwFbMhZd9+RlHxzdNN+lW2merWK9cWzWKpCAAEEEEAAAQQQiIMAAT0OXaQGBBA4IVD7TPnfbnbXLF/a637rd1dIYNvE1fPFLK1Se+40vxBAAAEEEEAAAQQQCK8AAT28vWFlCCAwW4GhIefSpS+5o98qrtE1coNK8H6xYNXMFnDk8tkqchwCIRCo/R+WfdpC0AiWgAACCCDQIgECeovgmRYBBBYsMLPp27pyukOrz1w8Ls5WR/RyMete8MgMgAACLRIgnLcInmkRQAABBEIiQEAPSSNYBgIIzFKgtunb3252X1y1ZKlOu+8R060mun7mbONy+SwVOQwBBBBAAAEEEEAghAIE9BA2hSUhgMBJBF69jX3sH6c37F8tW1XsGjFZcpIj+RICCCCAAAIIIIAAApEUIKBHsm0sGoGECNQ2fdvT76wf9fLV9G/fMaayVU0uErG2hAhQJgIIIIAAAggggECCBAjoCWo2pSIQGYGhIWfze8TZ/w/Pnq0WXBdk7AZHbPXM+rmLPTJtZKEIIIAAAggggAACcxMgoM/Ni6MRQKBxAjObvi0uZrM5/zcX7H9Bt4rolaaWb9yUjIwAAggggAACCCCAQHgECOjh6QUrQSCZAq8+u3zDyiVn+cXU1WKyVVQ3iokrPLs8me8JqkYAAQQQQAABBBIqQEBPaOMpG4GWC7y66dv4P06vC1bLlqrYtRrY8paviwUg0EQBnvrdRGymQgABBBBAIAICBPQINIklIhAjgZnb2FcdTnV5Hc9cOma61THnEhXrjFGNlILArAV46vesqTgQAQQQQACBRAgQ0BPRZopEoMUCtWeXj2x2n3tuyQpvyn2vtOsWMVlbW5Xx7PIWN4fpEUAAAQQQQAABBMIiQEAPSydYBwJxFLAhZ919R1LyrWMb90uwzVO9WsQWxbFUakIAAQQQQAABBBBAYKECBPSFCnI+Agi8UeDVTd/WLF/a637rd1dIYNvEkfPFJM2mb2+k4k8IIIAAAggggAACCLxegID+eg1+jwAC8xd4ddO30W8V1+gauUEleL9YsEpqH7Ll2eXzd+VMBBBAAAEEEEAAgcQIENAT02oKRaAhAjObvq07kO7QrmcuHhdnqyN6uZh1N2Q2BkUAgYgJsE99xBrGchFAAAEEWixAQG9xA5gegUgK1DZ9+9vN7ourlizVkneNdOtWM9swUwubvkWypSwagcYIsE99Y1wZFQEEEEAgrgIE9Lh2lroQaITAq7exj/3j9Ib9q2Wril0jvizhHvZGYDMmAggggAACCCCAQNIECOhJ6zj1IjBXgdqmb3v6nfWjXr6afuYdY6pb1ZyLRKxtrkNxPAIIIIAAAggggAACCJxagIB+ahteQSDZAkNDzub3iLP/H549Wy24LsjYDY7I6hkUbmNP9nuD6hGIogAfh49i11gzAgggkDgBAnriWk7BCJxWYGbTt2Vt+Uz74d9cuP8F3SqiV5pa/rRn8SICCCAQdgE+Dh/2DrE+BBBAAAERIaDzNkAAgdpHyFX+drO7YeWSs/xi6mqZnt4qqhvFxOXz5bxBEEAAAQQQQAABBBBojgABvTnOzIJAOAVe3fRt/B+n1wWrZUtV7FoNbHk4F8uqEEAAAQQQQAABBBCItwABPd79pToETiYwcxv7qsOpLq/jmUvHTLc65lyiYp0nO5ivIYAAAggggAACCCCAQHMECOjNcWYWBFovUHt2+chm97nnlqzwptz3SrtuEZO1tYUZm761vj+sAAEEEEAAAQQQQCDxAgT0xL8FAIi9gA056+77WUq+tWjjfgm2eapXi9ii2NdNgQgggAACCCCAAAIIREyAgB6xhrFcBGYl8Oqmb2uWL+11v/W7KyTo2yaOnS8maTZ9m5UgByGAAAIIIIAAAggg0HQBAnrTyZkQgQYKvLrp2+i3imt0jdygErxfLFgltccL1Z4BzC8EEEAAAQQQQAABBBAIrQABPbStYWEIzFpgZtO3DRO59sB95u3j4mx1RC8Xs+5Zj8CBCCCAAAIIIIAAAggg0HIBAnrLW8ACEJinQG3Tt7/d7L64aslSLXnX+F5lq5izYWY0Nn2bJyqnIYAAAggggAACCCDQOgECeuvsmRmB+Qm8ehv72D9Ob9i/Wraq2DXiyxLuYZ8fJ2chgAACCCCAAAIIIBAWAQJ6WDrBOhA4nUBt07c9/c76US9f/f/Zu/Mnu8ozT/Dve5fcU5mpNYV2ISQQWsEIAWUsV7nK1a4WUzXT8nRPdc3ExHTU4r9C/hvqD5gpPPOLiHDZhcvVHf2Dq01txsbYGDCSQAhJgJQS2tCay30nEmRbmNSSN+9ylo8iHE7dPOd9n+fznED66p48t+fInosx7o+psjOE1H+303yPAAECBAgQIECAAIH8CAjo+ZmVSssocPBgZd+XQuXU37y7LqbG7zd601crIaz/hMJt7GW8IvRMgAABAgQIECBQYAEBvcDD1VpuBT556NsDF8Z6B/vf2X7qRHouxLg3hbQ4tx0pnAABAgQIECBAgACBewoI6PckcgCBDgnc+uzyLWvGl8/cqD8T+q7vT420NYRQ9fPlHZqBbQgQIECAAAECBAh0UUBA7yK+rQl8InDroW+Xv3V9U2N9+Np0SF+OjbSKDgECBAgQIECAAAEC5RIQ0Ms1b91mR+CT29jXnqsvqvUdefxiJe6vpMpjMaSh7JSoEgIECBAgQIAAAQIEOikgoHdS214EZj+7/B/3VY8fH19dv1b7choMXwspbJqFSR765vogQIAAAQIECBAgUGoBAb3U49d8xwTSwcqmf/hRPTy/bOup0HiuFsMzKYRlIXWsAhsRIECAAAECBAgQIJBxAQE94wNSXo4Fbj30bcOqlUuqzx/bGxpLnwsxbQsh9OS4K6UTIECAAAECBAgQINAmAQG9TbCWLbHArYe+XXj+xoa4IXw1hsZXQmqsDbHEJlonQIAAAQIECBAgQOCeAgL6PYkcQOC+BD556NuWj4cHUs/buy43wv5KiHtCSiP3dbaDCBAgQIAAAQIECBAovYCAXvpLAMCCBGYf+vbNfdWTa8dXxpu1Z2dqU/vDTNjy6Zp+wHxBtk4mQCCzArP/dXNTUGbHozACBAgQyLGAgJ7j4Sm9iwK3bmO/+K3rW06tD/tjSM+GmTAePPWti0OxNQECnRIQzjslbR8CBAgQKJuAgF62ieu3eYHZh769cKCy+UJtbLrnyJ6LMe6PqbIzhNTf/KLOJECAAAECBAgQIECAwKcCArorgcC9BA4erOz7Uqic+pt318WYvtLobfxhJYT1n5zms8vvpef7BAgQIECAAAECBAjcp4CAfp9QDiudwCcPfXvgwljvYP8720+dSM+FGPemlBaXTkLDBAgQIECAAAECBAh0REBA7wizTXIjcOuzy7esGV8+c6P+TOi7vj810tYQQtXPl+dmigolQIAAAQIECBAgkEsBAT2XY1N0ywVuPfTt8reub2qsD1+bDunLsZFWtXwfCxIgQIAAAQIECBAgQOAOAgL6HWC8XAqBT25jX391cLgSjz5+MYTnKqnyWAxpqBTda5IAAQIECBAgQIAAgUwJCOiZGodiOiIw+9nl/7ivevz4+Or6tdqXU2X6ayHFTbN7Jw9968gIbEKAAAECBAgQIECAwOcFBPTPm3ilqALpYGXTX/+oHp4f2Xoq1J6rxfBMCmGZjy4v6sD1RYAAAQIECBAgQCBfAgJ6vual2vkK3Hro24ZVK5dUnz+2NwwvfS6ksC2E1DPfpRxPgAABAgQIECBAgACBdgoI6O3UtXb3BG499O3C8zc2xHXhqzE2vhJSY22I3SvJzgQIECBAgAABAgQIELibgIB+Nx3fy5vAJw992/Lx8MBkz9u7LjbC/kqIe0JMI3lrRL0ECBAgQIAAAQIECJRPQEAv38yL1/HsQ9++ua96cu34yniz9uxMbWp/dSZs+bTRVLx+dUSAAAECBAgQIECAQCEFBPRCjrUkTd26jf3it65vObU+7I8hPRtmwnjw1LeSXADaJECAAAECBAgQIFAsAQG9WPMsfjezD3174UBl84Xa2HTPkT0XQ9wfG5WdIaT+4jevQwIECBAgQIAAAQIEiiwgoBd5ukXq7eDByr4vhcqpv/nluhTrX5npC1+tpLDh0xbdxl6kUeuFAAECBAgQIECAQFkFBPSyTj4ffX/y0LcHLoz1Dva/s/3UifRciD17Y0qL81G+KgkQIECAAAECBAgQIHD/AgL6/Vs5slMCtz67fMua8eUzN+rPhL7r+1MjbQ0hVP18eaeGYB8CBAgQIECAAAECBDotIKB3Wtx+dxa49dC3y9+6vqmxPnxtOqQvx0ZadecTfIcAAQIECBAgQIAAAQLFERDQizPLvHbyyW3s668ODlfi0ccvxri/kuLjMaShvDakbgIECBAgQIAAAQIECDQjIKA3o+achQvMfnb5P+6rHj8+vrp+rfblVJn+Wkhx0+wnpCUfk7ZwXysQIECAQKYEGiGESqYqUgwBAgQIZFFAQM/iVIpcUzpY2fTXP6qH50e2ngq152oxPJNCWCaTF3noeiNAgAAB4dw1QIAAAQL3IyCg34+SYxYmcOuzyzdcqi2tPn9sbxhe+lxIYVsIqWdhCzubAAECBAgQIECAAAECxREQ0Iszy+x1cuuhbxeev7EhhvAHsd74/ZAaa0PMXqkqIkCAAAECBAgQIECAQLcFBPRuT6B4+3/y0LctHw8PTFbe3nWxEvZXQtwTUhopXqs6IkCAAAECBAgQIECAQOsEBPTWWZZ7pdmHvn1zX/Xk2vGV8Vrt2Zna1P5qCls+/dnyVG4b3RMgQIAAAQIECBAgQOA+BAT0+0ByyF0Ebt3GfvFb17ecWh/2x5CeDSGMhySU30XNtwgQIECAAAECBAgQIPA5AQH9cyReuKfArYe+PXy9f3QqHN1zsRGei43KzhBS/z3PdQABAgQIECBAgAABAgQIzCkgoM/J4sU5BQ4erOz7Uqic+ptfrkuN+lemKo2vxhA3fPrQN++Yz2nmRQIECBAgQIAAAQIECNyngIB+n1AlPuyTh749cGGsd7D/ne2nTqTnQuzZGytpcYlNtE6AAAECBAgQIECAAIGWCwjoLSctyIKzt7F/c191y5rx5TM36s+Evuv7UyNtDSFUw6dPfitIo9ogQIAAAQIECBAgQIBANgQE9GzMITtV3Hro2+VvXd/UWB++Nh3Sl2MjrcpOgSohQIAAAQIECBAgQIBAMQUE9GLOdb5dfXIb+/qrg8OVePTxiynurzTi4zGkofku5HgCBAgQIECAAAECBAgQaE5AQG/OrRhnzX52+T/uqx4/Pr66fq325VSZ/lpIcdPsQ9+S29i7MuMY/ABBS+GBtpTTYgQIECBAgAABAu0VENDb65vN1dPByqa//lE9PD+y9VSoPVeL4ZkUwjKZvPvj8iz8Fs8AaItBLUeAAAECBAgQINBOAQG9nbpZWvvWZ5dvuFRbWn3+2N4wvPS5kMK2EFJPlspUCwECBAgQIECAAAECBMoqIKAXffK3Hvp24fkbG2IIfxDrjd8PqbH2088uL3rz+iNAgAABAgQIECBAgEB+BAT0/MxqPpV+8tC3LR8PD0xW3t51sRL2V0LcE1Iamc8ijiVAgAABAgQIECBAgACBzgkI6J2zbv9Osw99++a+6sm14yvjtdqzM7Wp/dUUtnz6s+V+GLf9A7ADAQIECBAgQIAAAQIEmhcQ0Ju3y86Zt25jv/it61tOrQ/7Y0jPhhDGQxLKszMklRAgQIAAAQIECBAgQODuAgL63X2y+91bD317+Hr/6FQ4uudSivtjI+4KIfVnt2iVESBAgAABAgQIECBAgMCdBAT0O8lk9fWDByv7vhQqp/7ml+tSo/6VqUrjqzHEDZ+W6x3zrI5NXQQIECBAgAABAgQIELiXgIB+L6FsfP+Th749cGGsd7D+zvZTx9NzodKzN1bS4myUpwoCBAgQIECAAAECBAgQWKiAgL5QwXaeP3sb+zf3VbesGV8+c6P+TOi7vj+ltDWEUPXz5e2EtzYBAgQIECBAgAABAgQ6LyCgd9783jveeujb5W9d35Q2xH83nRq/Gxtp1b1PdAQBAgQIECBAgAABAgQI5FVAQM/Y5Db9v3+6qDF99ImLKe6vNOLjITSGYsZqVA4BAgQIECBAgAABAgQItF5AQG+96YJWTNPxP1Zi/MsQUkyffoD5gtZzMgECBAgQIECAAAECBAjkQ6CSjzJLVGVMl1JKl0rUsVbvIODOiTvAeJkAAQIECBAgQIBAQQUE9IIOVlv5F/ChefmfoQ4IECBAgAABAgQIzEdAQJ+PlmMJECBAgAABAgQIECBAgECbBAT0NsFalgABAgQIECBAgAABAgQIzEdAQJ+PlmMJECBAgAABAgQIECBAgECbBAT0NsFalgABAgQIECBAgAABAgQIzEdAQJ+PlmMJECBAgACB3Ah42GZuRqVQAgQIELglIKC7FAgQIECAAIFCCvi4ykKOVVMECBAotICAXujxao4AAQIECBAgQIAAAQIE8iIgoOdlUuokQIAAAQIECBAgQIAAgUILCOiFHq/mCBAgQKCzAn7qubPediNAgAABAsUSENCLNU/dECBAgEBXBfzUc1f5bU6AAAECBHIuIKDnfIDKJ0CAAAECBAgQIECAAIFiCAjoxZijLggQIECAAAECBAgQIEAg5wICes4HqHwCBAgQIECAAAECBAgQKIaAgF6MOeqCAAECBAgQIECAAAECBHIuIKDnfIDKJ0CAAAECBAgQIECAAIFiCAjoxZijLggQIECAAAECBAgQIEAg5wICes4HqHwCBAgQIECAAAECBAgQKIaAgF6MOeqCAAECBAgQIECAAAECBHIuIKDnfIDKJ0CAAAECBAgQIECAAIFiCAjoxZijLggQIECAAAECBAgQIEAg5wICes4HqHwCBAgQIECAAAECBAgQKIaAgF6MOX6+i/j5l7xCgAABAgQIECBAgAABAtkVENCzO5uFVZYWdrqzCRAgQIAAAQIECBAgQKCzAgJ6Z73tRoAAAQIECBAgQIAAAQIE5hQQ0Odk8SIBAgQIECBAgAABAgQIEOisgIDeWW+7ESBAgAABAgQIECBAgACBOQUE9DlZvEiAAAECBAgQIECAAAECBDorIKB31ttuBAgQIECAAAECBAgQIEBgTgEBfU4WLxIgQIAAAQIECBAgQIAAgc4KCOid9bYbAQIECBAgQCBzAo3MVaQgAgQIlFNAQC/n3HVNgAABAgQIEPi1gL8Q/prCFwQIEOiqgP8ed5Xf5gQIECBAgAABAgQIECBA4FMBAd2VQIAAAQIECBAgQIAAAQIEMiAgoGdgCEogQIAAAQIECBAgQIAAAQICumuAAAECBAgQIECAAAECBAhkQEBAz8AQlECAAAECBAgQIECAAAECBAR01wABAgQIECBAgAABAgQIEMiAgICegSEogQABAgQIECBAgAABAgQICOiuAQIECBAgQIAAAQIECBAgkAEBAT0DQ1ACAQIECBAgQIAAAQIECBAQ0F0DBAgQXWqOvAAAIABJREFUIECAAAECBAgQIEAgAwK1DNSgBAIECBAgQIAAAQJdFZiJMYZbb11VZ1LqajE2J0CgtAICemlHr3ECBAgQIECAAIFZgZuDtdq7u4YWTazvH178wc2bq9/8+OLwuembgrrrgwCBTgsI6J0Wtx8BAgQIECBAgEA2BGII51f2Vo/uGV1+bnXvqlSNPZeX9oQPHuy/Mn7s+sTaN69eGD47ebPaSCl4Tz0bM1MFgYILCOgFH7D2CBAgQIAAAQIE5hCIlfD+5v6eo0+OrLkyVh+//YjJwdrQie3DQ6c39V9ZcezGmXWvzwb1m5PeUb9dydcECLRDQEBvh6o1CRAgQIAAAQIEMitws79Sf2/H8NDxHcMrJweqY3cqdLK/NnTy0aGhMxsHriw/dnViNqgv8o76nbi8ToBACwQE9BYgWoIAAQIECBAgQCAHAjGES8t6KoefHFl8dm3fqlSr9N9P1ZP9laFTjw4PTWwcvDL+7vWJtb+4cv6Td9Td+n4/fI4hQGAeAgL6PLAcSoAAAQIECBAgkFOBGMIHG/vrR/aOrrmytGdlM13MBvUTWweHTm/oW7H8+I0z61+/cn74zM1JP6PejKZzCBCYS0BAn0vFawQIECBAgAABAoURmKmF6nvbhgbeeXxk1c2h2pKFNjbZXx089cjgxon1/SuWnbhxZt1rH58fEdQXyup8AgRCCAK6y4AAAQIECBAgQKCYAjGEK4t7Ku/sGRn7YEP/6pl6HGxlo5P9lcH3twxsPLu+b8Wy926cWfeLj8+PfOgd9VYaW4tA2QQE9LJNXL8ECBAgQIAAgTIIxBDObBioHnlqdM2lpfVV7Wx5srcy+P7mgY1n1/aOLz1x48z6n1/5aPYd9dhIIc60c2drEyBQNAEBvWgT1Q8BAgQIECBAoOQCMzHGU48O9r29Z2TN9eHask5xTPZVBz7YPLjh3Lr+FUtP3ji96q1rx0fevVzp1P72IUAg/wICev5nqAMCBAgQIECAAIFbAtdGa5WjX1g09sFDQ6tmeuJwN2AmeysDH2wa2HhhRW8a3Dbw0/D/hLe6UYc9CRDIn4CAnr+ZqTgvAjGEkPJSrDoJECBAgEDOBWIIZ1f3zd7Svuriit5VqRK6/s71TE+8Pj1Sv5ZzWeUTINBBAQG9g9i2KpmAcF6ygWuXAAECBLol0IiV8P4jg71H94ysuTZSXdGtOuxLgACBhQoI6AsVdD4BAgQIECBAgEDXBK4NVqrHHxtddOrR4Qcme8No1wqxMQECBFogIKC3ANESBAgQIECAAAECHRaIIZxf2Vc5/NToivMP9K5OlVDvcAW2I0CAQMsFBPSWk1qQAAECBAgQIECgnQKzt7R/uLm/5+iTI2uujNXH27mXtQkQINBJAQG9k9r2IkCAAAECBAgQWJDAZH+lenzn8NDxHcOrJvurYwtazMkECBDImICAnrGBKIcAAQIECBAgQGAOgdlb2lf0xqNPjiz9aE3/6kY19M1xlJcIECCQawEBPdfjUzwBAgQIECBAoAQCMYQPHxqoHdk7uubjsfoDJehYiwQIlFRAQC/p4LVNgAABAgQIEMiDwExPqB7fPjzwzmOLVk0O1JbkoWY1EiBAoFkBAb1ZOecRIECAAAECBAi0TyCGcHlxTzyyZ2RsYmP/6kYtDrZvMysTIEAgGwICejbmoAoCBAgQIECAAIFfCcQQzmwYqB55anTNpaX1Vb962f8TIECg6AICetEnrD8CBAgQIECAQI4EGtVKOPHoYP/bT4ysuTFUXZaj0pVKgACBBQsI6AsmtAABAgQIECBAgMCCBWII10Z6w9E9i8Y+2NS/ZqYehxe8pgUIECCQMwEBPWcDUy4BAgQIECBAoHACMYSJtX2Vt54aXX15ee/qEEMsXI8aIkCAwH0ICOj3geQQAgQIECBAgACB9gg0YiWcfLS/9+09o2uuD9dWtGcXqxIgQCAfAgJ6PuakSgIECBAgQIBA4QSuD9fi248Nj7y/dWj1dE9lpHANaogAAQLzFBDQ5wnmcAIECBAgQIAAgQUKxBA+WtkbDz81tvLCA71rUiX4O+kCSZ1OgEAxBCrFaEMXBAgQIECAAAECeRCYvaX9/YeH6q/9wdIN51f3bhDOOzi1lGI4mPz9v4PktiIwXwH/WjlfMccTIECAAAECBAg0JTDZX4nHHhsZfm/b0OqpvspYU4s4qTmBQ6m6+3sXt6Vdk4PV/37+jVe+MvZxiDGFEGb/5xcBAhkRENAzMghlECBAgAABAgQKKxBDuDDeG448ObL8ozX9axqV0Ju/XmdzbL4fLj8zc3NtDPGrU1dvfLDrO6f/Zeq/Xnrtja8uuhjibEj/JKznbywqJlAwAQG9YAPVDgECBAgQIEAgSwKNGMKZhwZqb+0dXXN1rP5AlmqbXy35Due39xpD9YEUw3+o3bz+Ozu/c+PlyvcHXn31yqHz4esHGoL67VK+JtB5AQG98+Z2JECAAAECBAiUQmCqJ1be2zk8cGz3yOrJ/sqSUjSdpyZTHA8xPDczde2pnbVnX5n6+6s/efNqOhsOhMat29/z1I1aCRRCQEAvxBg1QYAAAQIECBDIkMDsLe1L6+HtJ0YWT6zvX5vqlf4MVaeU3xKIKSwLlfiH9emre3b2X301fK/68uZD6fQLgvpvSfktgfYLCOjtN7YDAQIECBAgQKA8ArO3tD84WDm8d3TN5SW11eVpvACdprA4zITfS6HxhcO9Z36x+9uNf910KJ0S1AswWy3kRsDHLORmVAolQIAAAQIECGRcoFoLx3eO9P9839gm4Tzjs7pLeTGkkZji7zSq1b86XJv40+3fntiw7+APamH2Y9r8IkCgrQLeQW8rr8UJECBAgAABAiUQiCFcGetNb+8ZWXz6wb6107U4VIKuy9DiUKyEPZUQtp/f9cjhnd8/98PaT37y7iuPPz7tZ9TLMH49dkNAQO+Guj0JECBAgAABAkURmL2lfX1/PLx3dO3Hy3pWp5jzzyIrylxa2EcKoT+GuCtMNbZOnVr19o7TZ354+Qfp7eP/I0yGg7HRwq0sRaD0AgJ66S8BAAQIECBAgACB5gQasRJOPjrYe2TPyJqbw9UVza3irBwJ9MRQ2Rqm45ZFl88e27E9vhT+2+nDr/3riuuCeo6mqNRMCwjomR6P4ggQIECAAAEC2RS4OlxP7zwxPPrhlqG1Uz1xUTarVFV7BFI1pvBQqKaHGtfSiR3bz/yw//sfvfmjlxdfEdTbI27V8ggI6OWZtU4JECBAgAABAgsXiCGcW9Ufjjw9surieM/aRozVhS9qhbwKVGJlbaiG/3z95tT7u3ef/efp7138xS/+aORSiCGFEFNe+1I3gW4JCOjdkrcvAQIECBAgQCBnArO3tL+/daB+9MmRNdeGaytzVr5y2ygQY1zVSOnr1ekbX9z93Zs/qrzY/7NXrh+6EL5+oCGotxHe0oUTENALN1INESBAgAABAgRaL3BzoJqOPTYyfOLRwbVTfZWx1u9gxSIIpBBXphD+uDFz/eldPft+Mv3dq6+8fjOdCwdCw5PfizBhPbRbQEBvt7D1CRAgQIAAAQJ5FoghXBjvS4efWjT+0QN9a1M19uS5HbV3TGB5Culr1XT1ye31q69WXqj++OeH0mlBvWP+NsqpgICe08EpmwABAgQIECDQboFGDOH0lsHq4b2ja66O1Fa1ez/rF1JgSSWGr6Ta9BPbaqd/3ngx/dujh9L7L3hHvZDD1tTCBQT0hRtagQABAgQIECBQOIGpgUp4d9eiwXcfHV47NVBZXLgGNdRRgViJI9VGfLYa0u4j9Yk3dryY/nnLoXRCUO/oGGyWA4FKDmpUIgECBAgQIECAQKcEYggXV/Smn/7ekqVHd49sEc47BV+WfeJwiGFvaMS/OlI7+3889ndnH9x38Ae1kFIsi4A+CdxNwDvod9PxPQIECBAgQIBAmQRiCB8+2F+ZvaX9ypKe1WVqXa+dFYghDIRKemymER69sGPr0d3fPf3Dj79/9J23X9405bPUOzsLu2VLQEDP1jxUQ4AAAQIECBDoisBMPcYT2wb7jz4+unpysLqsK0XYtHwCMfSGGLalWH14YHL42M7dH7xUezEdfuWVcENQL9/loOMQBHRXAQECBAgQIECgzAIxhI+X9DTefnJ08el1fetn6nGwzBx6745ASqkWQ9wcGtWHptLEezu2pZdufvfsm4dfXXpVUO/OTOzaHQEBvTvudiVAgAABAgQIdF8ghjCxfiD88unRdR8vra/tfkEqKL1AjDGGsD7U4vq+mZlTO3ec/af4txde/9kfj14OMaQQYiq9EYBCCwjohR6v5ggQIECAAAECcws0YiWc3DbYe2TPyJqbQ9UVcx/lVQJdFKjE1SGk/9gINz/c8Z0z/1Z/sfHzV64fuhC+fqAhqHdxLrZuq4CA3lZeixMgQIAAAQIEsidwdaTeePuJ4bEPHhpaN9MTh7NXoYoI/EYghrgyxPAn043q0zt69/248d2JV1+/eehcOHCgEaJ31H8j5asiCAjoRZiiHggQIECAAAEC9yMwe0v7mt5w5OnFay4t61mbKsFH7t6Pm2OyIZDCihjSv6+GxlPba8/8tPZ353786qF0JhwIgno2JqSKFggI6C1AtAQBAgQIECBAIOsCs7e0v791oH70yZE114ZrK7Ne70Lqm/0hZR+qvRDBrJ9bWVKpVH5/ZmbmiR09Z3/W+G71R48cSh+8IKhnfXDquw8BAf0+kBxCgAABAgQIEMizwI2hauOdL4wOn3x4YP10b2U0z73cT+3C+f0o5f+YWImjIaR91XDz8bf6z/xi13fSvzx0KJ0U1PM/2zJ34LamMk9f7wQIECBAgECxBWII51b1NX76h8tWHt8+9GgZwnmxB6q7uQWqw5WZ+HSqVP7qrfrZP9v2nYmN+w7+oBZS8m81c4N5NcMC3kHP8HCURoAAAQIECBBoVqARQ/hwy2D1yN7R9VdHaquaXcd5BHIjkMJgJaYvhBi2Xdi57chjf/vhSzcOvfHOm2++MB0OHmzkpg+FllrAO+ilHr/mCRAgQIAAgSIKTA5UG0efGhl4/UuLNwvnRZywnu4qkEJfiI0d07HyF/X66F/sfvy/bH/qX1J/OJhkn7vC+WYWBLyDnoUpqIEAAQIECBAg0AqBGML58Z7Gkb1jy86v6lvfqIa+VixrDQJ5FIgx1kKobWlMp83Xzk68u2t746XJH6Rfvvk/wrVwMHpHPY9DLUHNAnoJhqxFAgQIECBAoPgCs7e0n35oMM7e0n5lrLam+B3rkMB9CsQYQwobU7WysX7p7Mld29M/hb99942f/fH6y7c+R332wf9+EciEgNs8MjEGRRAgQIAAAQIEmheY7gnp3ceH+l//0thm4bx5R2eWQSCtSdXwnxqx/xs7v336Sw9/+9TikGZvffdAuTJMPw89egc9D1NSIwECBAgQIEBgLoEYwuUlfTNHnly0ZGJ974ZGrTIw12FeI0DgswIxxAdCNf4vvanyOzu/O/Fy+nZ69bXpQx+FAwcat95V/+wJfkegQwICeoegbUOAAAECBAgQaKlADOHMxoHwy6dG119ZUl/b0rUtRqAsAjGsCCHsDzE9taPnmVfq3z73k1cOpYlwIAjqZbkGMtangJ6xgSiHAAECBAgQIHAvgUY1hJPbhnuPPjGy9sZgdfm9jvd9AgTuLhBjZWkIla9OV2b27KxNvJq+XXt5y6H04QuC+t3hfLflAgJ6y0ktSIAAAQIECBBok0AM4epo7/SRJxeNnd7Yv2GmHofbtJNlCZRTIMaxkMLvVipTXzhcO/fa7u/X/nXToXRKUC/n5dCNrj0krhvq9iRAgAABAgQIzFcghjCxri/95A8Xr3t/88B24Xy+gI4ncP8CKcZFMTV+pzE1+VeHa6f/8/a/n9iw7+APaiF5mNz9KzqyGQEBvRk15xAgQIAAAQIEOijQiJVw4tGhnl/87tJNHy/vWR9iiB3c3lYEyiwwFCuVJypTjW98tOOR/3PH353b/PhPUj0cPChHlfmqaGPvLqw24lqaAAECBAgQILBQgWtD9ek39i0efPOLY5uvD1fHF7qe8wkQaEIgVvoqlbgzNGb+cvLE6T/fvusvH933g9QXDs5+RJtfBFon4GfQW2dpJQIECBAgQIBA6wRiCB890Dfz1lOjqy6u7F2fKsHf21qnayUCTQnEGOsxxkdCSlvOXzxzbPvOxkszhyYOv/nmsmvhYGw0taiTCNwm4D/0t2H4kgABAgQIECCQBYFGDOGDh4dqR/aObLi2qPZAFmpSAwECtwnEWIkhbIqhuqlaTyd275h4qXLo/JuvvDn2saB+m5Mv5y0goM+bzAkECBAgQIAAgfYJTA7Upt/+wvDwyUeGNkz1Vcbat5OVCRBohUCKYW2K4U9n6pPv795x+l8mD538xRsHVl8MMaQQYmrFHtYoj4CAXp5Z65QAAQIECBDIskAM4cLKnpnDe8dWnF/Vt6FRCb1ZLldtBAh8ViDGuKoR44Favf7FXX838aP4/cbPXr1y6Hz4+oGGoP5ZK7+7s4CAfmcb3yFAgAABAgQIdERg9pb2M5sHK2/tHV13dbS2uiOb2oQAgfYIxDieUvifGlOVp3f1fvEnk39/9pU3r6az4UBohOgd9fagF2dVAb04s9QJAQIECBAgkEOBqd7KzLGdw4Pv7Vq0frK/siSHLSiZAIE5BGIKy1Ko/Lv6ZHpyW8/Eq9XvVV/efCidfkFQn0PLS78SENB/JeH/CRAgQIAAAQKdFIghXFxWnz765OiSc2v7N87U4kAnt7cXAQIdEohhcTWE30tT01840nPmtcdf7PnXjYfS+4J6h/xzto2AnrOBKZcAAQIECBDIv8DsLe1nHxwIv3x6dMOVsfra/HekAwIE7iUQK3EkhPDF6emp3UfqE2/seLH3n7YcSicE9XvJlev7Anq55q1bAgQIECBAoNsC1crMiR0jfUceH9wwOVhd1u1y7E+AQIcFKmEohPBkaFzfcbh+461d36v8cPQH6d1/3Bdm/Ix6h2eRwe0E9AwORUkECBAgQIBAAQViCJdH61NH944sObtxYMN0Lc7+Jd0vAgRKKhBDpT/EsDvNNB49f3Hi6M4XGz+89H+/+87x99ZP+iz1kl4UIQQBvbyz1zkBAgQIECDQKYEYwsS6gfTLZ0bXX1lSX5diiJ3a2j4ECGRdIPbEGB4NjfjworHBd3YuPvtSev70kdeOrbguqGd9dq2vT0BvvakVCRAgQIAAAQK/FmjESjj56GDvkT0ja24OV1f8+hu+IECAwGcEYjWGtDmE9FAYSSd27Drzw/7vf/TLH728+Iqg/hmoQv9GQC/0eDVHgAABAgQIdFPgyqL61DtPjoyc3jTw4FRPXNTNWuxNgEBOBFKMMcR1IYQ/uzE5c2rHrrP/nL538fVf/NHIpRBDCsFnqedkkk2VKaA3xeYkAgQIECBAgMBdBGIIH63un3nr6dHVl1bUNzRirN7laN8iQIDAHQTS6hjC/xqmbzy74zvT/1Z/sefnr1w/dCF8/UBDUL8DWc5fFtBzPkDlEyBAgEAOBVIIfgI5h3O7z5JnP0Lt/a2D9aNPjmy8NlxfeZ+nOYwAAQJ3FIghrgxx5k+mZ64/s7u+78dT35346es307lwIDQ8+f2ObLn8hoCey7EpmgABAgRyLeDxYLke392Kvz5YnTr2+MjwqUcGN071VcbudqzvESBAoAmB5Y2Y/qiawt7tfWd+Wvu76o9fPZTOCOpNSGb0FAE9o4NRFoG8Cczmjdk3Bf0iQIBAKQViCOdX9k4ffnp0/Px478ZUjT2ldNA0AQKdElhSacTfnwnpie29Z3+evlv9t0cOpQ9e8I56p/zbto+A3jZaCxddQCD97ISF8896+B0BAuURmL2l/cMtg9Uje0fXXx2prSpP5zolQKDbAjGk0ZjCl0KYeuyt3onXd32n558fOpROCurdnkzz+1eaP9WZBMotIJCWe/66J0CAwKzAZH9l+uhTo72vf3HxZuHcNUGAQPcE4nAlhacacfIbR3rO/u+P/8OljfsO/qAWUvJDVd0bSlM7ewe9KTYnESBAgAABAqUWiCFcWN47deSp0aXnVvU9mGqhv9QemidAIBMCMYSBENLj0zevb7uwa+uRx/7+ox9e/v7RY2+//P9NhYMHG5koUhF3FRDQ78rjmwQIECBAgACBzwrM3tI+8eBgfOup0QevLK6t+ex3/Y4AAQIZEIiV3hDC9ump6UcGw/A7u3b+l5eqL/75kVdeWXkjHIyCegZGdKcSBPQ7yXidAAECBAgQIPBbAo1aZerdncP97+we3jg5WF32W9/2WwIECGRKIMY4m/e2pFTbPD0dj+/cefqlG989+8vDry69KqhnalS/LkZA/zWFLwgQIECAAAECdxCIIXy8uGfyyN7RJRPr+h6cqcfBOxzpZQIECGRPIMbZn0XfEEJlQ19KJ3ftnvin8LcX3vjZH49evvU56h6vlJGpCegZGYQyCBAgQIAAgWwKzN7Sfm79QHrr6dGNl5fW12WzSlURIEDgfgXSmpTCf0rx5gc7/vbMv/V9+/LPX/6T4Qshzn5ibhTU75exTccJ6G2CtSwBAgQIECCQf4FUiY0T2wZ7jz4xuu7mUHVF/jvSAQECBD4ViCE+ECrhf76Zrj+z87vXX07fTq++Nn3oo3DgQOPWu+qouiAgoHcB3ZYECBAgQIBA9gWujtYnj+wZGTv94MCDMz1xOPsVq5AAAQJNCMQw+4+P+0OMT+2oPvPT+n879+NXDqWJcCAI6k1wLvQUAX2hgs4nQIAAAQIEiiUwe0v7mr7GW0+Prbu0rGd9qoRKsRrUDQECBD4vEGNYGqq1P5i+np7Y0Tfxs/APtR9tOZQ+fEFQ/zxWG1/xB04bcS1NgAABAgQI5EcghpBmf9785Nah+mtfWbLp4oqejcJ5fuanUgIEWiQQ01hshC9Xbk5943Dfua/v/v7FtQcOpWpIafZBc361WUBAbzOw5QkQIECAAIE8CFTC9YHq5Jv7lvT98otLNl8brq3MQ9VqJECAQLsEUoyLYqPxTGNy8htvVU//2bbvTGzcd/AHNUG9XeKfrusW9/b6Wp0AAQIECBDIuMDse0KXl9ZnXt+xbPWpB4ZGUiXUM16y8ggQINA5gRgGK9XKF0IM2z7ave3w9u999NLMoTeOvfnmC9Ph4MFG5wopx07eQS/HnHVJgAABAgQIzCEwG84/WjUQ33hi5fiHDwytLkw4dyPqHNP2EgECCxJIoa+SGjtjo/EX1friP9+2+//a9tShk/3hYJIpFwT72ZO9g/5ZD78jQIAAAQIESiIw05sa729YVDv24MqhS4OLZt8FmixM6z7JuDCj1AiBrAnElOoxVh4Oqb75Wk94d/e2D1+6eWjirTffXHYtHIzeUV/gwAT0BQI6nQABAgQIEMiZQAzh2mi1cezhZb2nxpcMTdfqs+/+3MxZF8ptSmD2Xy7cXtAUnZMIfE4gzv6388FGrfpgT0ondu2a+Kfqfz//xitfGfv41ueo+6fCz5nd+wUB/d5GjiBAgAABAgQKIjB7S/v5lf3x6KPjQ+dGR/oL0pY27ltAOL9vKgcSmIdAimFtCOF/m7o2+f6u75z+16n/eum1N7666GKIIYUQBfV5WPp5gXlgOZQAAQIECBDIr0CjnhofbBqKv9i1WjjP7xhVToBAhgViiqtSrPyH2s3r39j5nYmv7P7+laXh0KFqCD6i7X7H5h30+5VyHAECBAgQIJBPgRjC9UXVxnubl/ScWLV0aLLeU81nI6omQIBATgRSHA8xPDczde2pnbVnX5n6+6s/efNqOhsOhMat299z0kjnyxTQO29uRwIECBAgQKBDArPv2Vxc0RsObx0fOrdkzC3tHXK3DQECBGYFYgrLQiX+YX366p6d/VdfDd+rvrz5UDr9gqB+xwtEQL8jjW8QIECAAAECeRZIlUaaWD9cObJl5eCloaHePPeidgIECORaIIXFYSb8XgqNLxzuPfOLx19s/MsrKZ30bvrnpyqgf97EKwQIECBAgECeBWIIN4Zj4+RDK+rHVy8butnT4+87eZ6n2gkQKIxADGkkpPg7M6m2ZMeLl77/WgjvFqa5FjXiD6wWQVqGAAECBAgQ6L7A7C3tHy/vTUe2Lh84s2TJQIo+U6v7U1EBAQIECNyvgIB+v1KOI0CAAAECBDItkCopnF07FI9uGR+8sGi4L9PFKo4AAQIECMwhIKDPgeIlAgQIECBAIF8CU0OhcWLj4vrxdSuGrvf1+ftNvsanWgIECBC4JeAPMJcCAQIECBAgkFuB2VvaryytpbcfXtH/4YqlA40YK7ltRuEECBAgUHoBAb30lwAAAgQIECCQT4HZcP7R6sF45JEVg+dHFrmlPZ9jVDUBAgQI3CYgoN+G4UsCBAgQIEAgHwLTfY3G+w+O1I5tWDl0tX+gno+qVUmAAAECBO4uIKDf3cd3CRAgQIAAgSwJxBCujlXTOw+P970/vmxwplp1S3uW5qMWAgQIEFiQgIC+ID4nEyBAgAABAp0SmL2l/fwD/fHo1vGBc6Mj/Z3a1z4ECBAgQKBTAgJ6p6TtQ4AAAQIECDQt0OhJMx+sH669/dDKoSsDgz1NL+REAgQIECCQYQEBPcPDURqBeQnEEEKa1xkOJkCAQPYFYgjXRmLj3S3L+t5/YPngZK1ezX7RKiRAgAABAs0JCOjNuTmLQPYEhPPszURFBAgsSGD2lvZL473hyNbxoYnFY25pX5CmkwkQIEAgDwICeh6mpEYCBAgQIFAygVRrNE6vG66+vfmBwUtDg70la1+7BAgQIFBSAQG9pIPXNgECBAgQyKRADOHGcGy899DynhOrlw/d7OlxS3smB6UoAgQIEGiHgIDeDlVrEiBAgAABAvMWmL2l/fLy3nT40RWDE0vGBkKYfbiGXwQIECBAoDypmpfeAAAgAElEQVQCAnp5Zq1TAgQIECCQXYFqI02sHaoc2bxy6NKiYbe0Z3dSKiNAgACBNgoI6G3EtTQBAgQIECBwb4HJodQ4sWlx/fjalUM3env93eTeZI4gQIAAgYIK+EOwoIPVFgECBAgQyLrA7C3tV5bW09FHlg+cXrZ0oFGJ7mnP+tDUR4AAAQJtFRDQ28prcQIECBAgQGAugVQJ4dyqgXj0kfHB8yOL+uY6xmsECBAgQKBsAgJ62SauXwIECBAg0GWB6f5G49SDY7Vj68eHrvX317tcju0JECBAgEBmBAT0zIxCIQQIECBAoNgCs7e0Xx2rpXceWdb3wYplgzPVSqXYHeuOAAECBAjMT0BAn5+XowkQIECAAIEmBGbD+UcPDMSjj44PfDSyqL+JJZxCgAABAgQKLyCgF37EGiRAgAABAt0VmOlrND7YMFJ9Z+PKoSsDAz3drcbuBAgQIEAguwICenZnozICBAgQIJBvgRjC9ZFq49jDy3tPrlw6NF3rcUt7vieqegIECBBos4CA3mZgyxMgQIAAgTIKzN7SfnG8LxzeOj50bvGoW9rLeBHomQABAgTmLSCgz5vMCQQIECBAgMBdBepp5vS6odrRzSuHLg8OuaX9rli+SYAAAQIEfiMgoP/GwlcECHRYIIYQUof3tB0BAm0UiCHcWFRtvLd5ce97q5YNTdZ7qm3czdIECBAgQKBwAgJ64UaqIQL5ERDO8zMrlRK4l8DsLe2XVvSGI1tXDk4sGR241/G+T4AAAQIECHxeQED/vIlXCBAgQIAAgXkIxFqjMbF2qHJk8wNDF4eHeudxqkMJECBAgACB2wQE9NswfEmAAAECBAjMT2ByODRObFpaP75mfOhGb4+/V8yPz9EECBAgQOAzAv4g/QyH3xAgQIAAAQL3IzB7S/vHy+rp6CMrBk4vWzKQYpx9rIRfBAgQIECAwAIEBPQF4DmVAAECBAiUUqDSSOdWD1aOPrxy8PzIor5SGmiaAAECBAi0QUBAbwOqJQkQIECAQFEFZgbDzMkHl9SPrR8futbbWy9qn/oiQIAAAQLdEBDQu6FuTwIECBAgkDOB2VvaryyppbcfXjZwenzZwEysVHLWgnIJECBAoB0CPje3paoCeks5LUaAAAECBIonMBvOz68aiEceGR/8aNQt7cWbsI4IECCwAAGfm7sAvM+fKqB/3sQrBAgQIECAwC2Bmd5G4/0NI7VjD64cujIw4JZ2VwYBAgQIEGijgIDeRlxLEyBAgACB3ArEEK6OVtKxh1f0vT++dHC6VndLe26HqXACBAgQyIuAgJ6XSamTAAECBAh0SOCTW9pX9sejj44PnBsd6e/QtrYhQIAAAQKlFxDQS38JACBAgAABAr8RSPVG48N1i6pHNq8cujI42POb7/iKAAECBAgQaLeA29XaLWz99gvMPjnSLwIECBBoicBkTy2eWzrSJ5y3hNMiBAgQIEBgXgIC+ry4HJxJAU+OzORYFEWAAAECBAgQIHCbgDeVbsPw5Z0EBPQ7yXidAAECBAgQIECAAAECrRLwplKrJAu9joBe6PFqjgABAgQIECBAgAABAgTyIiCg52VS6iRAgAABAgQIECBAgACBQgsI6IUer+YIECBAgAABAgQIECBAIC8CAnpeJqVOAgQIECBAgAABAgQIECi0gIBe6PFqjgABAgQIECBAgAABAgTyIiCg52VS6iRAgAABAgQIECBAgACBQgsI6IUer+YIECBAgAABAgQIECBAIC8CAnpeJqVOAgQIECBAgAABAgQIECi0gIBe6PFqjgABAgQIECBAgAABAgTyIiCg52VS6iRAgAABAgQIECBAgACBQgsI6IUer+YIECBAgAABAgQIECBAIC8CAnpeJqVOAgQIECDQQoHUwrUsRYAAAQIECLRGQEBvjaNVCBAgQIBArgRirqpVLAECBAgQKIeAgF6OOeuSAAECBDIj4L3rzIxCIQQIECBAIGMCAnrGBqIcAgQIECi6gPeuiz5h/REgQIAAgWYFBPRm5ZxHgAABAgQIECBAgAABAgRaKCCgtxDTUgQIECBAgAABAgQIECBAoFkBAb1ZOecRIECAAAECBAgQIECAAIEWCgjoLcS0FAECBAgQIECAAAECBAgQaFZAQG9WznkECBAgQIAAAQIECBAgQKCFAgJ6CzEtRYAAAQIECBAgQIAAAQIEmhUQ0JuVcx4BAgQIECBAgAABAgQIEGihgIDeQkxLESBAgAABAgQIECBAgACBZgUE9GblnEeAAAECBAgQIECAAAECBFooIKC3ENNSBAgQIECAAAECBAgQIECgWQEBvVk55xEgQIAAAQIECBAgQIAAgRYKCOgtxLQUAQIECBAgQIAAAQIECBBoVkBAb1bOeQQIECBAgAABAgQIECBAoIUCAnoLMS1FgAABAgQIECBAgAABAgSaFRDQm5VzHgECBAgQIECAAAECBAgQaKGAgN5CTEsRIECAAAECBAgQIECAAIFmBQT0ZuWcR4AAAQIECBAgQIAAAQIEWiggoLcQ01IECBAgQIAAAQIECBAgQKBZAQG9WTnnESBAgAABAgQIECBAgACBFgoI6C3EtBQBAgQIECBAgAABAgQIEGhWQEBvVs55BAgQIECAAAECBAgQIECghQICegsxLUWAAAECBAgQIECAAAECBJoVENCblXMeAQIECBAgQIAAAQIECBBooYCA3kJMSxHIkkDMUjFqIUCAAAECBAgQIEDgngIC+j2JHEAgnwIpn2WrmgABAgQIECBAgEBpBQT00o5e4wQIECBAgAABAgQIECCQJQEBPUvTUAsBAgQIECBAgAABAgQIlFZAQC/t6DVOgAABAgQIECBAgAABAlkSENCzNA21ECBAgAABAgQIECBAgEBpBQT00o5e4wQIECBAgAABAgQIECCQJQEBPUvTUAsBAgQIlF7AJzCU/hIAQIAAAQIlFhDQSzx8rRMgQIBA9gRi9kpSEQECBAgQINAhAQG9Q9C2IUCAAAECBAgQIECAAAECdxMQ0O+m43sECBAgQIAAAQIECBAgQKBDAgJ6h6BtQ4AAAQIECBC4o4CfbbgjjW8QIECgTAICepmmrVcCBAgQIEAgmwKeDpjNuaiKAAECHRYQ0DsMbjsCBAgQIECAAAECBAgQIDCXgIA+l4rXCBAgQIAAAQIECBAgQIBAhwUE9A6D244AAQIECBAgQIAAAQIECMwlIKDPpVLm1zykpszT1zsBAgQIECBAgAABAl0UENC7iJ/JrT2kJpNjURQBAgQIECBAgAABAsUXENCLP2MdEiBAgEC7BfzjZruFrU+AAAECBEohIKCXYsyaJECAAIG2CvjxoLbyWpwAAQIECJRFQEAvy6T1SYAAAQIECBAgQIAAAQKZFhDQMz0exREgQIAAgS4LuDugywOwPQECBAiUSUBAL9O09UqAAAECBOYr4Ofr5yvmeAIECBAg0LSAgN40nRMJECBAgAABAgQIECBAgEDrBAT01llaiQABAgQIECBAgAABAgQINC0goDdN50QCBAgQIECAAAECBAgQINA6AQG9dZZWIkCAAAECBAgQIECAAAECTQsI6E3TOZEAAQIECBAgQIAAAQIECLROQEBvnaWVCBAgQIAAAQIECBAgQIBA0wICetN0TiRAgAABAgQIECBAgAABAq0TENBbZ2klAgQIECBAgAABAgQIECDQtICA3jSdEwkQIECAAAECBAgQIECAQOsEBPTWWVqJAAECBAgQIECAAIE8CcQ8FavWMggI6GWYsh4JECBAgAABAgQIEPi8QPr8S14h0E0BAb2b+vYmQIAAAQIECBAgQIAAAQK3BAR0lwIBAgQIECBAgAABAgQIEMiAgICegSEogQABAgQIECBAgAABAgQICOiuAQIECBAgQIAAAQIECBAgkAEBAT0DQ1ACAQIECBAgQGDBAp5GvWBCCxAgQKDbAgJ6tydgfwIECBAgQIBAKwQ8jboVitYgQIBAVwUE9K7y25wAAQIECBAgQIAAAQIECHwqIKC7EggQIECAAAECBAgQIECAQAYEBPQMDEEJBAgQIECAAAECBAgQIEBAQHcNLFjAM2kWTGgBAgQIECBAgAABAgQIBAHdRbBgAc+kWTChBQgQIECAAAECBAgQICCguwYIECBAgAABAgQIECBAgEAWBLyDnoUpqIEAAQIECBAgQIAAAQIESi8goJf+EgBAgAABAgQIECBAgAABAlkQENCzMAU1ECBAgAABAgQIECBAgEDpBQT00l8CAAgQIECAAAECBAgQIEAgCwICehamoAYCBAgQIECAAAECBAgQKL2AgF76SwAAAQIECBAgQIAAAQIECGRBQEDPwhTUQIAAAQIECBAgQIAAAQKlFxDQS38JACBAgAABAgQIECBAgACBLAgI6FmYghoIECBAgAABAgQIECBAoPQCAnrpLwEABAgQIECAAAECBAgQIJAFAQE9C1NQAwECBAgQIECAAAECBAiUXkBAL/0lAIAAAQIECBAgQIAAAQIEsiAgoGdhCmogQIAAAQIECBAgQIAAgdILCOilvwQAECBAgAABAgQIECBAgEAWBAT0LExBDQQIECBAgAABAgQIECBQegEBvfSXAAACBAgQIECAAAECBAgQyIKAgJ6FKaiBAAECBAgQIECAAAECBEovIKCX/hIAQIAAAQIECBAgQIAAAQJZEBDQszAFNRAgQIAAAQIECBAgQIBA6QUE9NJfAgAIECBAgAABAgQIECBAIAsCAnoWpqAGAgQIECBAgAABAgQIECi9gIBe+ksAAAECBAgQIECAAAECBAhkQUBAz8IU1ECAAAECBAgQIECAAAECpRcQ0Et/CQAgQIAAAQIECBAgQIAAgSwICOhZmIIaCBAgQIAAAQIECBAgQKD0AgJ66S8BAAQIECBAgAABAgQIECCQBQEBPQtTUAMBAgQIECBAgAABAgQIlF5AQC/9JQCAAAECBAgQIECAAAECBLIgIKBnYQpqIECAAAECBAgQIECAAIHSCwjopb8EABAgQIAAAQIECBAgQIBAFgQE9CxMQQ0ECBAgQIAAAQIECBAgUHoBAb30lwAAAgQIECBAgAABAgQIEMiCgICehSmogQABAgQIECBAgAABAgRKLyCgl/4SAECAAAECBAgQIECAAAECWRAQ0LMwBTUQIECAAAECBAgQIECAQOkFBPTSXwIACBAgQIBAuwVSuzewPgECBAgQKISAgF6IMWqCAAECBAhkWSBmuTi1ESBAgACBzAgI6JkZhUIIECBAgAABAgQIECBAoMwCAnqZp693AgQIECBAgAABAgQIEMiMgICemVEohAABAgQIECBAgAABAgTKLCCgl3n6eidQBAE/2lqEKerhvgU8bO2+qRxIgAABAgRyKCCg53BoSiZA4DYBeeU2DF8WX8C/SBV/xjokQIAAgTILCOhlnr7eCRAgQIAAAQIECBAgQCAzAgJ6ZkahEAIECBAgQIAAAQIECBAos4CAXubp650AAQIECBAgQIAAAQIEMiMgoGdmFAohQIAAAQIECBAgQIAAgTILCOhlnr7eCRAgQIAAAQIECBAgQCAzAgJ6ZkahEAIECBAgQIAAgU4K+CCQTmrbiwCB+xEQ0O9HyTEECBAgQIAAAQKFE/DBhYUbqYYI5F5AQM/9CDVAgMBdBfzt6648vkmAAAECBAgQIJAdAQE9O7NQCQEC7RBw/2I7VK1JgAABAgQIECDQBgEBvQ2oliRAgAABAgQIECBAgAABAvMVENDnK+Z4AgQIECBAgAABAgQIECDQBgEBvQ2oliRAgACB7Aj4KYfszEIlBAgQIECAwN0FBPS7+/guAQIECORcwHMCcz5A5RMgQIAAgRIJCOglGrZWCRAgQIAAAQJZFXC3S1Ynoy4CBDopIKB3UtteBAgQIECAAAECcwq422VOFi8SIFAyAQG9ZAPXLgECBAgQIECAAAECBAhkU0BAz+ZcVEWAAAECBAgQIECAAAECJRMQ0Es2cO0SIECAAAECBAgQIECAQDYFBPRszkVVBAgQIECAAAECBAgQIFAyAQG9ZAPXLgECBAgQIECAAAECBAhkU0BAz+ZcVEWAAAECBAgQIECAAAECJRMQ0Es2cO0SIECAAAECBAgQIECAQDYFBPRszkVVBAgQIECAAAECBAgQIFAyAQG9ZAPXLgECBAgQIECAAAECBAhkU0BAz+ZcVEWAAAECBAgQIECAAAECJRMQ0Es2cO0SIECAAAECBAgQIECAQDYFBPRszkVVBAgQIECAAAECBAgQIFAyAQG9ZAPXLgECBAgQIECAAAECBAhkU0BAz+ZcVEWAAAECBAgQIECAAAECJRMQ0Es2cO0SIECAAAECBAgQIECAQDYFBPRszkVVBAgQIECAAAECBAgQIFAyAQG9ZAPXLgECBAgQIECAAAECBAhkU0BAz+ZcVEWAAAECBAgQIECAAAECJRMQ0Es2cO0SIECAAAECBAgQIECAQDYFBPRszkVVBAgQIECAAAECBAgQIFAyAQG9ZAPXLgECBAgQIECAAAECBAhkU0BAz+ZcVEWAAAECBAgQIECAAAECJRMQ0Es2cO0WRyAWpxWdECBAgAABAgQIECAQQhDQXQYEciqQclq3sgkQIECAAAECBAgQmFtAQJ/bxasECBAgQIAAAQIECBAgQKCjAgJ6R7ltRoAAAQIECBAgQIAAAQIE5hYQ0Od28SoBAgQIECBAgAABAgQIEOiogIDeUW6bESBAgAABAgQIECBAgACBuQUE9LldvEqAAAECBAgQIECAAAECBDoqIKB3lNtmBAgQIECAAAECBAgQIEBgbgEBfW4XrxIgQIAAAQIECBAgQIAAgY4KCOgd5bYZAQIECBAgQIAAAQIECBCYW0BAn9vFqwQIECBAgAABAgQIECBAoKMCAnpHuW1GgAABAgQIECBAgAABAgTmFhDQ53bxKgECBAhkTSBlrSD1ECBAgAABAgRaKyCgt9bTagQIECDQLoHYroWtS4AAAQIECBDIhoCAno05qIIAAQIECBAgQIAAAQIESi4goJf8AtA+AQIECBAgQIAAAQIECGRDQEDPxhxUQYAAAQIECBAgQKBYAn40qVjz1E1HBAT0jjDbhAABAgQIECBAgEDJBDzcs2QD124rBAT0VihagwABAgQIECBAgAABAgQILFBAQF8goNMJECBAgAABAgQIECBAgEArBAT0VihagwABAgQIECBAgAABAgQILFBAQF8goNMJECBAgAABAgQIECBAgEArBAT0VihagwABAgQIECBAgAABAgQILFBAQF8goNMJECBAgAABAgQIECBAgEArBAT0VihagwABAgQIECBAgAABAgQILFBAQF8goNMJECBAgAABAgQIECBAgEArBAT0VihagwABAgQIECBAgAABAgQILFBAQF8gYJlPj2VuXu8ECBAgQIAAAQIECBBosYCA3mLQMi2XytSsXgkQIECAAAECBAgQINBmAQG9zcCWJ0CAAAECBAgQIECAAAEC9yMgoN+PkmMIECBAgAABAgQIECBAgECbBQT0NgNbngABAgTyKeDHePI5N1UTIECAAIE8CwjoeZ6e2gkQIFBagfbHZw/CLO3FpXECBAgQINA1AQG9a/Q2JkCAAIHmBcTn5u2cmWWB9v/TU5a7VxsBAgQICOiuAQIECBAgQIBARgT801NGBqEMAgQIdElAQO8SvG0zIOBvQRkYghIIECBAgAABAgQIEPiVgID+Kwn/Xz4B9xGWb+Y6JkCAAAECBAgQIJBhAQE9w8NRGgECBAgQIECAAAECBAiUR0BAL8+sdUqAAAECBAgQIECAAIEMCIihdxoCmTvJeJ0AAQIECBAgQIAAAQIE2iDQaMOaxVhSQC/GHHVBgAABAgQIECBAgAABAjkXENBzPkDlEyBAgAABAgQIECBAgEAxBAT0YsxRFwQIECBAgAABAgQIECCQcwEBPecDVH62BHy0erbmoRoCBAgQIECAAAECeRIQ0PM0LbVmXsBHq2d+RAokQIAAAQIECBAgkFkBAT2zo1EYAQIECBAgQIAAAQIECJRJQEAv07T1SoAAAQIECORKoO13ZvnZrFxdD4olQKD4AgJ68WesQwIECBAgQCCnAm3Pz23/F4CcwiubAAECXRIQ0LsEb1sCBAgQIECAAAECBAgQIHC7gIB+u4avCRAgQIAAAQIECBAgQIBAlwQE9C7B25YAAQIECBAgQIAAAQIECNwuIKDfruFrAgQIECBAgAABAgQIECDQJQEBvUvwtiVAgAABAgQIECBAgAABArcLCOi3a/iaAAECBAgQIECAAAECBAh0SUBA7xK8bQkQIECAAAECBAgQIECAwO0CAvrtGr4mQIAAAQIECBDooIAPYu8gtq0IEMiBgICegyEpkQABAgQIECBQTIFYzLZ0RYAAgSYFBPQm4ZxGgAABAgQIECBAgAABAgRaKSCgt1LTWnML5Pwfx3Ne/twz8SoBAgQIECBAgAABApkTENAzN5ICFpTzHy/LefkFvKC0RKC7Av6b0F1/uxMgQIAAgSILCOhFnq7eCBAgQKDlAu6qaTmpBQkQIECAAIFbAgK6S4EAAQIECBAgQIAAAQIECGRAQEDPwBCUQIAAAQIECBAgQIAAAQIEBHTXAAECBAgQIECAAAECBAgQyICAgJ6BISiBAAECBAgQIECAAAECBAgI6K4BAgQIECBAgAABAgQIECCQAQEBPQNDUAIBAgQIECBAgAABAgQIEBDQXQMECBAgQIAAAQIE2iDQaMOaliRAoNgCAnqx56s7AgQIECBAgACBLgn4i3aX4G1LIMcC/ruR4+EpnQABAgQIEOiUQOrURvYhQIAAgRILCOglHr7WCRAgQIAAgfsViPd7oOMIECBAgEDTAgJ603ROJECAAAECBAgQIECAAAECrRMQ0FtnaSUCBO5TwPtQ9wnlMAIECBAgQIAAgVIJCOilGrdmCWRDwE9yZmMOqiBAgAABAgQIEMiWgICerXmohgABAgQIECBAgAABAgRKKiCgl3Tw2iZAgAABAgQIECBAgACBbAkI6Nmah2oIECBAgAABAgQIECBAoKQCAnpJB9/Wtj0BrK28FidAgAABAk0L+DO6aTonEiBAoBMCAnonlMu2hyeAlW3i+iVAgACBvAj4Mzovk1InAQIlFRDQSzp4bRMgQIAAAQIECBAgQIBAtgQE9GzNQzUECBAgQIAAAQIECBAgUFIBAb2kg9c2AQIECBAgQIAAAQIECGRLQEDP1jxUQ4AAAQIECiDgB50LMEQtECBAgEAXBAT0LqDbkgABAgQIFFvAo8KLPV/dESBAgEC7BAT0dslalwABAgQIECBAgAABAgQIzENAQJ8HlkMJECBAgAABAgQIECBAgEC7BAT0dslalwABAgQIECBAgAABAgQIzENAQJ8HlkMJECBAgAABAgQIECBAgEC7BAT0dslalwABAgQIECBAgAABAgQIzENAQJ8HlkMJECBAgAABAgQIECBAgEC7BAT0dslalwABAgQIECBAgAABAgQIzENAQJ8HlkMJECBAgEBpBXy0eWlHr3ECBAgQ6JyAgN45azsRIECAAIH8CqT8lq5yAgQIECCQFwEBPS+TUicBAgQIECBAgAABAgQIFFpAQC/0eDVHgAABAgQIECBAgAABAnkRENDzMil1EiBAgAABAgQIECBAgEChBQT0Qo9XcwQIECBAgAABAgQIECCQFwEBPS+TUicBAgQIECBAgAABAgQIFFpAQC/0eDVHgAABAgQIECBAgAABAnkRENDzMil1EiBAgAABAgQyIuBT9zIyCGUQIFA4AQG9cCPVEAECBAgQIECgvQKxvctbnQABAqUVENBLO3qNEyBAgAABAgQIECBAgECWBAT0LE1DLQQIECBAgAABAgQIECBQWgEBvbSj1zgBAgQIECiBgHuxSzBkLRIgQKA4AgJ6cWapEwIECBAgQOC3BTzN7LdF/J4AAQIEMiwgoGd4OEojQIAAAQIECBAgQIAAgfIICOjlmbVOCRAgQIAAAQIECBAgQCDDAgJ6hoejNAIECBAgQIAAAQIECBAoj4CAXp5Z65QAAQIECBAgQIAAAQIEMiwgoGd4OEojQIAAAQIECBAgQIAAgfIICOjlmbVOCRAgQCAnAh48npNBKZMAAQIECLRYQEBvMajlCBAgQIDA5wXmF7l9dPfnBb1CgAABAgTKICCgl2HKeiRAgACBLguI3F0egO0JECBAgEAuBAT0XIxJkQQIECBAgAABAgQIECBQdAEBvegT1h8BAgQIECCQbwE3YOR7fqonQIDAPAQE9HlgOZQAAQIECBAg0HGB+T3CoOPl2ZAAAQIEWicgoLfO0koECBAgQIAAAQIECBAgQKBpAQG9aTon5lXAnYJ5nZy6CRAgQIAAAQIECBRbQEAv9nx1N4eAOwXnQPESAQIECBAgQIAAAQJdFxDQuz4CBRAgQIAAAQIECBAgQIAAgRAEdFcBAQIECBAgQIAAAQIECBDIgICAnoEhKIEAAQIECBAgQIAAAQIECAjorgECBAgQIECAAAECBAgQIJABAQE9A0NQAgECBAgQIECAAAECBAgQENBdAwQIECBAgAABAgQIECBAIAMCAnoGhqAEAgQIECBAgAABAqUTiKXrWMME7ikgoN+TyAEECBAgQIAAAQIECLRcILV8RQsSyL2AgJ77EWqAAAECBPIt4G+o+Z6f6gkQIECAQOsEBPTWWVqJAAECBAg0IeAezybQnEKAAAECBAopIKAXcqyaIkCAAAECBAgQIECAAIG8CQjoeZuYegkQIECAAAECBAgQIECgkAICeiHHqikC5RNwk3D5Zq5jAgQIECBAgEDRBAT0ok1UPwRKKuAxWyUdvLYJECBAgAABAgUSENALNEytECBAgAABAgQIECBAgEB+BQT0/M5O5QQIECBAgACBTAPm+qoAAAi7SURBVAi4iykTY1AEAQIFEBDQCzBELRAgQIAAAQIEuingOSDd1Lc3AQJFEhDQizRNvRAgQIAAAQIECBAgQIBAbgUE9NyOTuEECBAgQIAAAQIECBAgUCQBAb1I09QLAQIECBAgQIAAAQIECORWQEDP7egUToAAAQIECBAgQIAAAQJFEhDQizRNvRAgQIAAAQIECBAgQIBAbgUE9NyOTuEECBAgQIAAAQIECBAgUCQBAb1I09QLAQIECBAgQIAAAQIECORWQEDP7egUToAAAQIECBAgQIAAAQJFEhDQizRNvRAgQIAAAQIECBAgQIBAbgUE9NyOTuEECBAgQIAAAQIECBAgUCQBAb1I09QLAQIECBAgQIAAAQIECORWQEDP7egUToAAAQIECBAgQIAAAQJFEhDQizRNvRAgQIAAAQIECBAgQIBAbgUE9NyOTuEECBAgQIAAAQIECBAgUCQBAb1I09QLAQIECBAgQIAAAQIECORWQEDP7egUToAAAQIECBAgQIAAAQJFEhDQizRNvRAgQIAAAQIECBAgQIBAbgUE9NyOTuEECBAgQIAAAQIECBAgUCQBAb1I09QLAQIECBAgQIAAAQIECORWQEDP7egUToAAAQIECBAgQIAAAQJFEhDQizRNvRAgQIAAAQIECBAgQIBAbgUE9NyOTuEECBAgQIAAAQIECBAgUCQBAb1I09QLAQIECBAgQIAAAQIECORWQEDP7egUToAAAQJZFUhZLUxdBAgQIECAQKYFBPRMj0dxBAgQIJBHgZjHotVMgAABAgQIdF1AQO/6CBRAgAABAgQIECBAgAABAgRCENBdBQQIECBAgAABAgQIECBAIAMCAnoGhqAEAgQIECBAgAABAgQIECAgoLsGCBAgQIAAAQIECBAgQIBABgQE9AwMQQkECBAgQIAAAQIECBAgQEBAdw0QIECAAAECBAgQIECAAIEMCAjoGRiCEggQIECAAAECBAgQIECAgIDuGiBAgAABAgQIECBAgAABAhkQENAzMAQlECBAgMB8BNJ8DnYsAQIECBAgQCA3AgJ6bkalUAIECBD4VCCCIECAAAECBAgUUkBAL+RYNUWAAAECBAgQIECAAAECeRMQ0PM2MfUSIECAAAECBAgQIECAQCEFBPRCjlVTBAgQIECAAAECBAgQIJA3AQE9bxNTLwECBAgQIECAAAECBAgUUkBAL+RYNUWAAAECBAgQIECAAAECeRMQ0PM2MfUSIECAAAECBAgQIECAQCEFBPRCjlVTBAgQIECAAAECBAgQIJA3AQE9bxNTLwECBAgQIECAAAECBAgUUkBAL+RYNUWAAAECBAgQIECAAAECeRMQ0PM2MfUSIECAAAECBAgQIECAQCEFBPRCjlVTBAgQIECAAAECBAgQIJA3AQE9bxNTLwECBAgQIECAAAECBAgUUkBAL+RYNUWAAAECBAgQIECAAAECeRMQ0PM2MfUSIECAAAECBAgQIECAQCEFBPRCjlVTBAgQIECAAAECBAgQIJA3AQE9bxNTL4ECCcQC9aIVAgQIECBAgAABAgsVENAXKuh8AgSaFkhNn+lEAgQIECBAgAABAsUTENCLN1MdESBAgACBHAj4J7ocDEmJBAgQINBhAQG9w+C2I0CAAAECZROYO4r7IZeyXQf6JUCAAIF7Cwjo9zZyBAECBAgQILAAAVF8AXhOJUCAAIFSCQjopRq3ZgkQIECAAAECBAgQIEAgqwICelYnoy4CBAgQIECAAAECBAgQKJWAgF6qcWv2/2/n3nISCIIogFYPamLC+lzPsB4X4Brcjx+CQhnQhITIhzjBcvr88eypOpfHVCdAgAABAgQIECBAgAABAlUFDOhVk1EXgVMBP+I8FXGdAAECBAgQIECAwKwEDOizilMzsxb4/m+QZ92y5ggQIECAAAECBAj0JGBA7yltvRIgQIAAAQIECBAgQIBAWQEDetloFEaAAAECBAgQIECAAAECPQkY0HtKW68ECBAgQIAAAQIECBAgUFbAgF42GoURIECAAAECBAgQIECAQE8CBvSe0tYrAQIECBAgQIAAAQIECJQVMKCXjUZhBAgQIECAAAECBAgQINCTgAG9p7T1SoAAAQIECBAgQIAAAQJlBQzoZaNRGAECBAgQIECAAIGiAq1oXcoi8M8FDOgFA/R5VzAUJREgQIAAAQIECBwF8njRJQIEphO4mW4pK00h0HJYRuZ9RKynWM8aBAicEVjEZhjudmfuverNLWIbmZurHvQKB8vDyVtbt4jXnx1u/0RblT8zm+7R+Uk/RGZXm/jZch3RXlv6/p3s1eStvKfc7HJR4rtmX0zGsI3cvU2WsYUIXCqwGN6H7eeZwqVLzPV5zoDqJdtiHOVSLxcVzU1gHPenjocRcm6t6YfA7wWyjaNdkt87WqF3gefnp9vl8iUfHx/qbMLm1zZc7+Ho/68FWqxWEeNYZgPrr0EcnwABAgQIECBAgAABAgQIECBAgAABAgQIECBAgAABAgQIECBAgAABAgQIECBAgAABAgQIECBAgAABAgQIECBAgAABAgQIECBAgAABAgQIECBAgAABAgQIECBAgAABAgQIECBAgAABAgQIECBAgAABAgQIECBAgAABAgQIECBAgAABAgQIECBAgAABAgQIECBAgAABAgQIECBAgAABAgQIECBAgAABAgQIECBAgAABAgQIECBAgAABAgQIECBAgAABAgQIECBAgAABAgQIECBAgAABAgQIECBAgAABAgQIECBAgAABAgQIECBAgAABAgQIECBAgAABAgQIECBAgAABAgQIECBAgAABAgQIECBAgAABAgQIECBAgAABAgQIECBAgAABAgQIECBAgAABAgQIECBAgAABAgQIECBAgAABAgQIECBAgAABAgQIECBAgAABAgQIECBAgAABAgQIECBAgAABAgQIECBAgAABAgQIECBAgAABAgQIECBAgAABAgQuEfgAFkUBNVXw478AAAAASUVORK5CYII=;" parent="1" vertex="1">
          <mxGeometry x="80" y="40" width="480" height="480" as="geometry" />
        </mxCell>
        <mxCell id="--E-WBSj7tG_2jARWcKu-2" value="&lt;b style=&quot;font-size: 100px;&quot;&gt;&lt;font data-font-src=&quot;https://fonts.googleapis.com/css?family=arial&quot; face=&quot;arial&quot; style=&quot;font-size: 100px;&quot;&gt;S4S&lt;/font&gt;&lt;/b&gt;" style="text;html=1;strokeColor=none;fillColor=none;align=center;verticalAlign=middle;whiteSpace=wrap;rounded=0;fontColor=#FFFFFF;fontSize=100;" parent="1" vertex="1">
          <mxGeometry x="120" y="510" width="410" height="140" as="geometry" />
        </mxCell>
        <mxCell id="ESi-cBDvTWX7jilm_3Eq-1" value="&lt;b style=&quot;font-size: 60px;&quot;&gt;&lt;font data-font-src=&quot;https://fonts.googleapis.com/css?family=arial&quot; face=&quot;arial&quot; style=&quot;font-size: 60px;&quot;&gt;services for sustainability&lt;/font&gt;&lt;/b&gt;" style="text;html=1;strokeColor=none;fillColor=none;align=center;verticalAlign=middle;whiteSpace=wrap;rounded=0;fontColor=#FFFFFF;fontSize=60;" vertex="1" parent="1">
          <mxGeometry x="-52.5" y="650" width="755" height="140" as="geometry" />
        </mxCell>
        <mxCell id="ESi-cBDvTWX7jilm_3Eq-2" value="" style="endArrow=none;html=1;rounded=0;entryX=1;entryY=0;entryDx=0;entryDy=0;exitX=0;exitY=0;exitDx=0;exitDy=0;strokeWidth=4;strokeColor=#FFFFFF;" edge="1" parent="1" source="ESi-cBDvTWX7jilm_3Eq-1" target="ESi-cBDvTWX7jilm_3Eq-1">
          <mxGeometry width="50" height="50" relative="1" as="geometry">
            <mxPoint x="310" y="590" as="sourcePoint" />
            <mxPoint x="360" y="540" as="targetPoint" />
          </mxGeometry>
        </mxCell>
      </root>
    </mxGraphModel>
  </diagram>
</mxfile>
